<svg width="1366" height="982" viewBox="0 0 1366 982" fill="none" xmlns="http://www.w3.org/2000/svg">
<path d="M264.876 835.044L192.948 478.177C192.076 473.241 192.271 468.187 193.519 463.326C194.767 458.466 197.042 453.903 200.204 449.92L430.042 160.115C433.605 155.622 438.203 151.981 443.476 149.474C448.751 146.967 454.558 145.663 460.444 145.663H901.458C906.776 145.658 912.044 146.719 916.91 148.778C921.785 150.837 926.148 153.848 929.734 157.619L1196.1 437.939C1199.6 441.618 1202.28 445.943 1203.98 450.649C1205.67 455.353 1206.34 460.34 1205.96 465.304L1150.27 834.896L264.876 835.044Z" fill="#461CFF"/>
<path opacity="0.9" d="M268.956 829.394L197.028 472.527C196.156 467.592 196.351 462.538 197.599 457.677C198.847 452.817 201.122 448.254 204.285 444.27L434.123 154.465C437.685 149.973 442.283 146.331 447.556 143.824C452.831 141.317 458.638 140.013 464.525 140.014H905.538C910.857 140.009 916.124 141.069 920.991 143.128C925.866 145.187 930.228 148.199 933.814 151.969L1200.18 432.289C1203.68 435.969 1206.36 440.294 1208.06 444.999C1209.75 449.704 1210.42 454.691 1210.04 459.655L1154.35 829.247L268.956 829.394Z" fill="white"/>
<path d="M1195.74 836.337H224.272C223.931 836.312 223.613 836.165 223.382 835.919C223.15 835.682 223.022 835.363 223.022 835.044C223.022 834.716 223.15 834.397 223.382 834.16C223.613 833.914 223.931 833.767 224.272 833.742H1195.74C1196.08 833.767 1196.39 833.914 1196.62 834.16C1196.85 834.397 1196.98 834.716 1196.98 835.044C1196.98 835.363 1196.85 835.682 1196.62 835.919C1196.39 836.165 1196.08 836.312 1195.74 836.337Z" fill="#461CFF"/>
<g opacity="0.6">
<path opacity="0.6" d="M1195.74 836.337H224.272C223.931 836.312 223.613 836.165 223.382 835.919C223.15 835.682 223.022 835.363 223.022 835.044C223.022 834.716 223.15 834.397 223.382 834.16C223.613 833.914 223.931 833.767 224.272 833.742H1195.74C1196.08 833.767 1196.39 833.914 1196.62 834.16C1196.85 834.397 1196.98 834.716 1196.98 835.044C1196.98 835.363 1196.85 835.682 1196.62 835.919C1196.39 836.165 1196.08 836.312 1195.74 836.337Z" fill="white"/>
</g>
<path d="M965.463 522.195L968.238 433.365L969.271 436.949L1002.87 429.396L993.765 388.807C992.826 384.75 990.905 380.963 988.156 377.753C985.398 374.544 981.898 372.003 977.928 370.337L936.453 353.094H936.368L933.892 352.063L930.63 352.751L908.501 357.481L900.945 348.045L898.384 347.227V347.292L871.107 344.33C861.161 343.245 851.102 345.026 842.216 349.445L805.197 367.677L829.632 392.554L852.171 387.89L853.443 397.35C858.702 435.353 860.119 483.815 858.292 522.195H965.463ZM936.436 353.168C936.436 353.209 936.436 353.274 936.436 353.356V353.168Z" fill="#461CFF"/>
<path d="M858.377 516.09L865.071 794.135H891.733L906.623 560.198C906.708 558.873 907.323 557.63 908.339 556.724C909.355 555.819 910.687 555.321 912.078 555.332C913.461 555.342 914.793 555.86 915.792 556.781C916.791 557.702 917.38 558.954 917.448 560.28L930.98 794.135H957.651L965.848 516.09H858.377Z" fill="#010517"/>
<g opacity="0.5">
<path opacity="0.5" d="M858.377 516.09L857.523 524.175H965.548L965.864 516.09H858.377Z" fill="black"/>
</g>
<path d="M867.854 810.15L867.137 787.867H889.744L888.754 810.846L867.854 810.15Z" fill="#FC9D9D"/>
<path opacity="0.15" d="M889.505 794.135L888.788 810.846L883.375 810.69L883.537 800.87C883.537 800.102 883.281 799.354 882.786 798.746C882.299 798.138 881.608 797.705 880.831 797.515L867.299 794.16L889.505 794.135Z" fill="black"/>
<path d="M954.629 810.15L955.346 787.867H932.654L933.687 810.837L954.629 810.15Z" fill="#FC9D9D"/>
<path d="M898.427 317.914L898.666 349.355C898.657 350.121 898.905 350.868 899.374 351.491L899.699 352.022C901.577 354.703 904.01 356.976 906.862 358.696C909.713 360.415 912.898 361.543 916.236 362.005C919.566 362.468 922.964 362.256 926.199 361.382C929.444 360.509 932.457 358.992 935.044 356.932C935.59 356.491 936.009 355.922 936.265 355.28C936.513 354.638 936.589 353.944 936.478 353.266L930.502 315.427L898.427 317.914Z" fill="#FC9D9D"/>
<path d="M934.003 302.35C934.003 302.35 940.525 343.708 916.723 345.386C893.475 347.063 892.766 305.247 892.766 305.247L892.126 293.266L922.059 288.233L929.623 291.973L934.003 302.35Z" fill="#FC9D9D"/>
<path opacity="0.15" d="M934.566 341.949L932.816 330.607C930.664 337.931 926.208 344.036 918.405 345.255H918.481L916.774 345.484C910.559 345.942 905.385 343.201 901.483 337.301C901.449 337.239 901.406 337.184 901.347 337.141C901.295 337.097 901.227 337.065 901.159 337.047C901.091 337.029 901.014 337.026 900.945 337.036C900.877 337.047 900.809 337.072 900.749 337.109C900.689 337.147 900.638 337.197 900.595 337.255C900.553 337.313 900.527 337.378 900.519 337.446C900.51 337.514 900.51 337.584 900.527 337.651C900.553 337.717 900.587 337.779 900.63 337.833C904.77 344.093 910.26 346.99 916.851 346.531C918.234 346.439 919.591 346.184 920.906 345.77C925.807 346.246 930.707 344.875 934.566 341.949Z" fill="black"/>
<path d="M910.951 331.883L921.068 331.196C921.128 331.194 921.188 331.206 921.239 331.23C921.299 331.254 921.341 331.289 921.384 331.333C921.418 331.377 921.444 331.429 921.461 331.485C921.469 331.54 921.478 331.598 921.461 331.654C921.153 332.742 920.496 333.712 919.591 334.432C918.678 335.152 917.568 335.585 916.39 335.675C915.22 335.765 914.042 335.505 913.026 334.932C912.01 334.359 911.207 333.5 910.721 332.472V332.399C910.686 332.352 910.669 332.299 910.661 332.243C910.661 332.188 910.669 332.133 910.695 332.081C910.712 332.031 910.746 331.986 910.797 331.951C910.84 331.916 910.891 331.893 910.951 331.883Z" fill="white"/>
<path d="M928.359 293.119C928.359 293.119 935.915 288.307 939.458 296.548C942.48 303.495 937.392 311.049 937.392 311.049L933.012 310.59C931.176 310.517 929.904 309.674 929.742 307.996L928.359 293.119Z" fill="#010517"/>
<path d="M933.772 288.053C934.404 295.918 927.403 297.98 924.535 298.209L901.048 300.116C900.126 300.195 899.272 300.611 898.666 301.28C898.06 301.948 897.744 302.814 897.787 303.7L898.188 310.868C898.222 311.347 898.068 311.822 897.752 312.193C897.437 312.563 896.976 312.801 896.48 312.857L895.046 313.013L893.449 314.919C884.22 312.783 880.396 287.677 897.351 282.636C898.265 282.363 899.11 281.918 899.844 281.33C900.578 280.742 901.176 280.021 901.62 279.207C904.087 274.297 914.196 273.029 919.293 278.52C919.788 279.082 920.411 279.526 921.111 279.818C921.82 280.109 922.58 280.239 923.348 280.197C929.469 280.066 933.448 283.733 933.772 288.053Z" fill="#010517"/>
<path d="M924.697 299.224C924.295 299.268 923.894 299.268 923.501 299.224C923.373 299.202 923.262 299.135 923.186 299.038C923.1 298.94 923.066 298.819 923.075 298.695C923.083 298.572 923.143 298.457 923.237 298.372C923.331 298.287 923.45 298.238 923.578 298.233C923.655 298.233 928.359 298.463 930.348 295.484C930.425 295.373 930.536 295.293 930.673 295.264C930.809 295.235 930.946 295.258 931.066 295.328C931.125 295.364 931.176 295.409 931.211 295.463C931.253 295.517 931.279 295.577 931.296 295.641C931.305 295.705 931.305 295.771 931.296 295.836C931.279 295.9 931.253 295.961 931.219 296.016C929.469 298.536 926.361 299.142 924.697 299.224Z" fill="#FC9D9D"/>
<path d="M907.024 321.351C907.434 321.351 907.835 321.234 908.177 321.016C908.518 320.797 908.783 320.487 908.936 320.124C909.099 319.76 909.141 319.36 909.056 318.975C908.979 318.589 908.783 318.235 908.492 317.957C908.202 317.679 907.835 317.489 907.425 317.413C907.024 317.336 906.606 317.375 906.23 317.526C905.854 317.676 905.53 317.931 905.3 318.258C905.069 318.585 904.949 318.969 904.949 319.363C904.949 319.624 905.001 319.883 905.103 320.125C905.206 320.367 905.359 320.586 905.556 320.771C905.744 320.956 905.974 321.103 906.23 321.202C906.478 321.301 906.751 321.352 907.024 321.351Z" fill="black"/>
<path d="M906.068 319.592C906.136 319.601 906.204 319.595 906.273 319.576C906.333 319.557 906.392 319.526 906.444 319.483C906.495 319.44 906.537 319.386 906.563 319.327C906.597 319.268 906.606 319.203 906.606 319.138C906.606 319.072 906.597 319.008 906.563 318.949C906.537 318.889 906.495 318.836 906.444 318.792C906.392 318.75 906.333 318.718 906.273 318.699C906.204 318.68 906.136 318.674 906.068 318.683C906 318.674 905.931 318.68 905.863 318.699C905.803 318.718 905.743 318.75 905.692 318.792C905.641 318.836 905.598 318.889 905.573 318.949C905.539 319.008 905.53 319.072 905.53 319.138C905.53 319.203 905.539 319.268 905.573 319.327C905.598 319.386 905.641 319.44 905.692 319.483C905.743 319.526 905.803 319.557 905.863 319.576C905.931 319.595 906 319.601 906.068 319.592Z" fill="white"/>
<path d="M922.904 320.206C923.313 320.207 923.715 320.092 924.056 319.874C924.406 319.656 924.671 319.346 924.825 318.982C924.987 318.618 925.029 318.218 924.944 317.831C924.867 317.445 924.671 317.089 924.381 316.811C924.09 316.532 923.715 316.343 923.313 316.266C922.912 316.19 922.494 316.23 922.118 316.382C921.734 316.533 921.41 316.789 921.188 317.117C920.957 317.445 920.838 317.832 920.838 318.225C920.838 318.486 920.889 318.742 920.991 318.983C921.102 319.224 921.248 319.441 921.444 319.625C921.632 319.81 921.862 319.955 922.11 320.055C922.366 320.154 922.631 320.206 922.904 320.206Z" fill="black"/>
<path d="M921.99 318.528C922.118 318.528 922.238 318.48 922.332 318.394C922.417 318.308 922.468 318.192 922.468 318.07C922.468 317.948 922.417 317.832 922.332 317.746C922.238 317.66 922.118 317.612 921.99 317.612C921.862 317.612 921.743 317.66 921.649 317.746C921.563 317.832 921.512 317.948 921.512 318.07C921.512 318.192 921.563 318.308 921.649 318.394C921.743 318.48 921.862 318.528 921.99 318.528Z" fill="white"/>
<path opacity="0.3" d="M916.014 328.749L917.721 328.602C917.875 328.585 918.02 328.513 918.123 328.399C918.225 328.285 918.285 328.139 918.276 327.988C918.259 327.839 918.191 327.701 918.071 327.603C917.952 327.504 917.798 327.451 917.645 327.456L915.937 327.603C915.766 327.613 915.604 327.592 915.442 327.54C915.28 327.487 915.134 327.405 915.006 327.299C914.878 327.192 914.776 327.062 914.708 326.918C914.631 326.773 914.588 326.615 914.58 326.454C914.562 326.292 914.588 326.131 914.639 325.978C914.699 325.825 914.784 325.684 914.895 325.563C915.006 325.441 915.143 325.342 915.288 325.272C915.442 325.201 915.604 325.158 915.775 325.148C915.852 325.143 915.929 325.124 915.997 325.091C916.074 325.058 916.133 325.011 916.185 324.954C916.236 324.898 916.279 324.832 916.304 324.76C916.33 324.689 916.338 324.614 916.338 324.539C916.33 324.463 916.313 324.39 916.27 324.323C916.236 324.255 916.193 324.194 916.133 324.144C916.074 324.094 916.005 324.057 915.928 324.032C915.852 324.008 915.775 323.998 915.698 324.003C915.382 324.025 915.075 324.108 914.784 324.248C914.503 324.387 914.255 324.58 914.05 324.814C913.845 325.049 913.692 325.32 913.598 325.612C913.512 325.905 913.478 326.211 913.512 326.515C913.512 326.823 913.572 327.129 913.7 327.413C913.828 327.696 914.016 327.951 914.247 328.161C914.486 328.372 914.759 328.532 915.066 328.634C915.374 328.735 915.689 328.774 916.014 328.749Z" fill="black"/>
<path d="M933.772 332.121L931.211 324.044L934.156 310.852L937.477 310.484L938.493 320.492L933.772 332.121ZM932.295 324.06L933.712 329.788L937.383 320.525L937.486 312.071L934.856 311.507L932.295 324.06Z" fill="#461CFF"/>
<path d="M899.417 333.798L893.082 324.445L894.995 314.625C895.012 314.477 895.072 314.337 895.174 314.224C895.276 314.111 895.413 314.031 895.567 313.994C895.712 313.958 895.874 313.966 896.019 314.019C896.164 314.071 896.292 314.166 896.378 314.289L900.049 325.877L899.417 333.798ZM894.158 324.175L898.598 330.844L898.982 326.081L895.72 314.985V315.639L894.158 324.175Z" fill="#461CFF"/>
<path d="M898.504 323.905C898.504 323.905 913.94 329.543 933.508 322.751L934.438 329.126C934.438 329.126 933.96 343.643 918.02 345.64C918.02 345.64 901.688 347.538 897.974 331.09L898.504 323.905Z" fill="#461CFF"/>
<path opacity="0.15" d="M918.003 345.639C933.943 343.643 934.421 329.126 934.421 329.126L934.028 326.4L933.798 325.787C918.703 338.062 898.17 328.242 898.17 328.242L897.957 331.098C901.671 347.538 918.003 345.639 918.003 345.639Z" fill="white"/>
<path opacity="0.15" d="M918.003 345.639C929.802 344.158 933.123 335.819 934.062 331.589L934.003 331.425C913.513 347.481 898.649 332.873 898.649 332.873L898.521 333.062C902.994 347.374 918.003 345.639 918.003 345.639Z" fill="white"/>
<path d="M928.675 312.955L919.677 313.413L918.481 313.487L910.601 313.945H910.524L900.416 314.486C900.023 314.508 899.639 314.604 899.281 314.769C898.93 314.936 898.615 315.167 898.35 315.451C898.094 315.735 897.898 316.067 897.769 316.424C897.641 316.783 897.599 317.161 897.624 317.538L897.786 319.747C897.94 321.774 898.913 323.661 900.501 325.005C902.098 326.349 904.173 327.041 906.29 326.934C908.399 326.827 910.388 325.928 911.822 324.432C913.256 322.935 914.016 320.959 913.948 318.929L913.786 316.72C913.752 316.098 913.504 315.506 913.069 315.042L916.176 314.887C915.818 315.406 915.647 316.025 915.698 316.646L915.86 318.855C915.92 319.872 916.185 320.868 916.637 321.787C917.098 322.706 917.739 323.529 918.524 324.21C919.318 324.891 920.24 325.415 921.239 325.755C922.238 326.094 923.305 326.242 924.364 326.188C925.422 326.134 926.464 325.881 927.42 325.442C928.376 325.004 929.239 324.388 929.947 323.631C930.664 322.874 931.211 321.99 931.561 321.031C931.919 320.071 932.073 319.053 932.013 318.037L931.86 315.819C931.86 315.427 931.774 315.04 931.612 314.679C931.45 314.319 931.211 313.995 930.912 313.728C930.613 313.459 930.263 313.252 929.879 313.119C929.495 312.986 929.085 312.931 928.675 312.955ZM912.591 316.695L912.753 318.905C912.804 319.765 912.684 320.625 912.386 321.439C912.095 322.252 911.634 323.003 911.037 323.647C910.439 324.29 909.713 324.815 908.911 325.19C908.1 325.566 907.22 325.785 906.324 325.836C905.427 325.887 904.531 325.767 903.677 325.485C902.832 325.202 902.047 324.762 901.381 324.19C900.706 323.618 900.16 322.925 899.767 322.15C899.374 321.375 899.144 320.534 899.093 319.674L898.939 317.456C898.913 317.004 899.076 316.562 899.383 316.221C899.699 315.88 900.134 315.669 900.604 315.631L910.721 315.091H910.798C911.028 315.08 911.259 315.113 911.472 315.188C911.685 315.264 911.882 315.38 912.053 315.529C912.215 315.679 912.351 315.859 912.445 316.059C912.539 316.26 912.591 316.476 912.591 316.695ZM930.827 317.914C930.929 319.651 930.314 321.356 929.111 322.657C927.907 323.956 926.208 324.743 924.398 324.846C922.588 324.948 920.804 324.355 919.455 323.2C918.097 322.044 917.269 320.42 917.167 318.684L917.004 316.466C916.987 316.008 917.15 315.561 917.474 315.219C917.79 314.877 918.234 314.666 918.712 314.633L919.907 314.559L928.897 314.101C929.375 314.083 929.845 314.243 930.195 314.549C930.553 314.854 930.775 315.28 930.809 315.738L930.827 317.914Z" fill="#010517"/>
<path d="M888.754 830.306V810.846C888.745 808.021 887.575 805.314 885.501 803.313C883.418 801.311 880.6 800.178 877.655 800.158H877.177C874.735 800.147 872.37 800.948 870.483 802.424C868.597 803.9 867.299 805.961 866.821 808.251C866.257 811.046 864.943 813.651 863.005 815.805L859.82 819.389C857.114 822.433 855.62 826.304 855.603 830.306H888.754Z" fill="#461CFF"/>
<path d="M869.527 810.543C869.442 810.543 869.365 810.522 869.297 810.481C869.22 810.441 869.169 810.383 869.126 810.314C869.049 810.085 869.049 809.855 869.288 809.774C871.158 808.758 873.267 808.224 875.418 808.224C877.57 808.224 879.678 808.758 881.548 809.774C881.702 809.929 881.787 810.158 881.625 810.314C881.463 810.469 881.232 810.543 881.07 810.387C879.337 809.443 877.373 808.946 875.376 808.946C873.378 808.946 871.414 809.443 869.681 810.387C869.681 810.543 869.604 810.543 869.527 810.543Z" fill="white"/>
<g opacity="0.8">
<path opacity="0.8" d="M880.489 364.126L876.187 367.243L871.218 365.23L870.552 360.099L874.855 356.982L879.823 358.995L880.489 364.126Z" fill="white"/>
<path opacity="0.8" d="M922.323 426.319L918.02 429.437L913.051 427.424L912.385 422.293L916.688 419.175L921.657 421.188L922.323 426.319Z" fill="white"/>
<path opacity="0.8" d="M896.711 468.872L892.408 471.99L887.439 469.977L886.773 464.846L891.076 461.728L896.045 463.741L896.711 468.872Z" fill="white"/>
<path opacity="0.8" d="M965.011 374.764L960.708 377.882L955.739 375.869L955.073 370.738L959.376 367.62L964.345 369.633L965.011 374.764Z" fill="white"/>
<path opacity="0.8" d="M918.934 389.805L913.513 387.612L912.787 382.014L917.483 378.61L922.904 380.803L923.63 386.401L918.934 389.805ZM914.298 387.039L918.814 388.872L922.725 386.041L922.118 381.376L917.602 379.543L913.692 382.374L914.298 387.039Z" fill="white"/>
<path opacity="0.8" d="M876.246 442.997L870.825 440.803L870.099 435.206L874.795 431.802L880.216 433.995L880.942 439.592L876.246 442.997ZM871.61 440.231L876.127 442.064L880.037 439.232L879.431 434.568L874.915 432.735L871.004 435.566L871.61 440.231Z" fill="white"/>
<path opacity="0.8" d="M915.519 509.282L910.097 507.088L909.372 501.491L914.067 498.087L919.489 500.28L920.214 505.877L915.519 509.282ZM910.883 506.516L915.399 508.349L919.309 505.517L918.703 500.853L914.187 499.02L910.277 501.851L910.883 506.516Z" fill="white"/>
<path opacity="0.8" d="M986.38 417.628L980.959 415.435L980.233 409.838L984.929 406.433L990.35 408.627L991.076 414.224L986.38 417.628ZM981.744 414.862L986.261 416.695L990.171 413.864L989.565 409.199L985.048 407.366L981.138 410.198L981.744 414.862Z" fill="white"/>
<path opacity="0.8" d="M930.033 461L924.611 458.807L923.886 453.209L928.581 449.805L934.003 451.998L934.728 457.596L930.033 461ZM925.397 458.234L929.913 460.067L933.823 457.236L933.217 452.571L928.701 450.738L924.791 453.57L925.397 458.234Z" fill="white"/>
<path opacity="0.8" d="M950.523 422.538L945.101 420.345L944.376 414.748L949.071 411.344L954.493 413.537L955.218 419.134L950.523 422.538ZM945.887 419.772L950.403 421.605L954.313 418.774L953.707 414.109L949.191 412.276L945.281 415.108L945.887 419.772Z" fill="white"/>
<path opacity="0.8" d="M832.705 372.62L827.284 370.427L826.558 364.829L831.254 361.425L836.675 363.618L837.401 369.216L832.705 372.62ZM828.069 369.887L832.586 371.72L836.496 368.888L835.89 364.224L831.373 362.391L827.463 365.222L828.069 369.887Z" fill="white"/>
<path opacity="0.8" d="M879.636 504.061L875.333 507.179L870.364 505.165L869.698 500.034L874.001 496.917L878.97 498.93L879.636 504.061Z" fill="white"/>
<path opacity="0.8" d="M954.766 492.604L950.463 495.722L945.494 493.709L944.828 488.578L949.131 485.46L954.1 487.473L954.766 492.604Z" fill="white"/>
<path opacity="0.8" d="M880.489 405.042L876.187 408.16L871.218 406.147L870.552 401.016L874.855 397.898L879.823 399.911L880.489 405.042Z" fill="white"/>
</g>
<path d="M868.17 813.284C868.084 813.286 868.008 813.265 867.939 813.225C867.871 813.184 867.811 813.125 867.777 813.055C867.692 812.826 867.692 812.597 867.931 812.523C869.8 811.507 871.909 810.972 874.061 810.972C876.212 810.972 878.321 811.507 880.19 812.523C880.353 812.679 880.43 812.908 880.276 813.055C880.242 813.096 880.208 813.131 880.156 813.157C880.114 813.184 880.062 813.201 880.011 813.209C879.96 813.216 879.909 813.214 879.858 813.202C879.806 813.189 879.755 813.167 879.712 813.137C877.979 812.193 876.016 811.696 874.018 811.696C872.029 811.696 870.065 812.193 868.332 813.137C868.332 813.284 868.264 813.284 868.17 813.284Z" fill="white"/>
<path d="M866.736 816.189C866.659 816.189 866.573 816.168 866.505 816.127C866.437 816.087 866.377 816.029 866.343 815.96C866.266 815.731 866.266 815.502 866.497 815.42C868.366 814.404 870.475 813.869 872.626 813.869C874.778 813.869 876.887 814.404 878.756 815.42C878.799 815.45 878.833 815.488 878.859 815.531C878.893 815.575 878.91 815.623 878.919 815.673C878.927 815.724 878.919 815.774 878.91 815.824C878.893 815.873 878.876 815.919 878.842 815.96C878.68 816.107 878.44 816.189 878.287 816.034C876.554 815.09 874.59 814.594 872.592 814.594C870.595 814.594 868.631 815.09 866.898 816.034C866.821 816.189 866.736 816.189 866.736 816.189Z" fill="white"/>
<path d="M856.952 834.348H887.277C887.661 834.348 888.02 834.201 888.293 833.947C888.558 833.685 888.711 833.342 888.711 832.973V830.379H855.517V832.973C855.517 833.153 855.551 833.333 855.628 833.497C855.697 833.669 855.799 833.816 855.936 833.947C856.072 834.078 856.226 834.176 856.405 834.242C856.576 834.315 856.764 834.348 856.952 834.348Z" fill="#461CFF"/>
<path opacity="0.2" d="M856.952 834.348H887.277C887.661 834.348 888.02 834.201 888.293 833.947C888.558 833.685 888.711 833.342 888.711 832.973V830.379H855.517V832.973C855.517 833.153 855.551 833.333 855.628 833.497C855.697 833.669 855.799 833.816 855.936 833.947C856.072 834.078 856.226 834.176 856.405 834.242C856.576 834.315 856.764 834.348 856.952 834.348Z" fill="black"/>
<path d="M864.507 794.135L864.268 785.281H892.928L892.374 794.135H864.507Z" fill="#461CFF"/>
<path d="M895.157 315.476C895.088 314.81 894.832 314.173 894.423 313.635C894.004 313.095 893.441 312.675 892.8 312.416C892.16 312.157 891.451 312.071 890.76 312.166C890.068 312.261 889.42 312.534 888.873 312.955L888.788 313.037C884.732 316.392 887.354 326.949 896.275 326.008L895.157 315.476Z" fill="#FC9D9D"/>
<path d="M939.501 309.903L939.424 309.829C938.826 309.494 938.143 309.319 937.452 309.323C936.752 309.328 936.077 309.512 935.48 309.855C934.882 310.198 934.395 310.688 934.071 311.274C933.738 311.859 933.584 312.52 933.61 313.184L934.088 323.258C943.087 322.955 943.957 312.652 939.501 309.903Z" fill="#FC9D9D"/>
<path d="M896.275 316.769C896.292 317.031 896.198 317.29 896.019 317.49C895.848 317.69 895.592 317.815 895.319 317.841C895.054 317.877 894.79 317.819 894.568 317.679C894.346 317.539 894.192 317.325 894.124 317.08L893.091 310.287L896.036 310.361L896.275 316.769Z" fill="#010517"/>
<path d="M935.437 314.027C935.454 314.288 935.369 314.546 935.189 314.745C935.01 314.944 934.762 315.068 934.489 315.091C934.224 315.13 933.96 315.072 933.738 314.932C933.516 314.791 933.362 314.576 933.294 314.33L932.252 307.538L935.198 307.611L935.437 314.027Z" fill="#010517"/>
<path d="M892.928 785.281L892.374 794.135H864.507L864.268 785.281H892.928Z" fill="#461CFF"/>
<path opacity="0.15" d="M980.575 382.98L992.442 431.965L1003.18 429.51L993.876 388.766C992.937 384.708 991.016 380.92 988.258 377.711C985.509 374.501 982 371.96 978.03 370.296L968.554 366.327C974.667 370.17 978.978 376.143 980.575 382.98Z" fill="black"/>
<path opacity="0.15" d="M959.086 407.342L952.785 522.195H965.89L968.52 433.594L960.836 407.194C960.819 406.972 960.708 406.766 960.528 406.623C960.349 406.479 960.119 406.41 959.88 406.429C959.649 406.449 959.436 406.556 959.291 406.727C959.137 406.898 959.069 407.119 959.086 407.342Z" fill="black"/>
<path d="M1009.99 459.388L1003.16 429.551L969.57 437.105L976.254 455.926L920.052 467.907L916.945 468.52C915.911 468.749 914.955 468.823 914.238 468.136L913.043 466.99C911.916 466.12 910.618 465.472 909.227 465.083C905.914 464.15 903.114 462.016 901.423 459.134L898.717 454.551C898.691 454.497 898.649 454.45 898.597 454.411C898.555 454.374 898.495 454.347 898.435 454.333C898.375 454.319 898.307 454.318 898.247 454.33C898.188 454.343 898.128 454.368 898.077 454.404L897.599 454.551C896.659 454.892 895.891 455.563 895.447 456.428C895.003 457.293 894.918 458.287 895.217 459.208L897.283 465.468C897.385 465.794 897.351 466.144 897.189 466.447C897.035 466.751 896.762 466.986 896.429 467.105L868.708 478.021C865.916 479.011 866.872 482.677 869.425 482.064C870.774 481.761 885.603 475.951 885.603 475.951L882.982 477.252C880.037 478.627 881.386 482.44 883.939 481.908C886.491 481.376 889.829 480.533 889.829 480.533L886.56 481.753C886.013 482.014 885.586 482.464 885.373 483.012C885.159 483.56 885.168 484.166 885.407 484.707C885.637 485.249 886.073 485.686 886.628 485.93C887.183 486.174 887.815 486.208 888.395 486.024C890.299 485.566 893.33 484.65 893.33 484.65L891.341 485.566C888.779 486.335 889.633 490.149 892.058 489.658C894.124 489.273 913.547 484.699 923.578 482.939L998.008 475.157C999.92 474.979 1001.77 474.414 1003.45 473.499C1005.11 472.585 1006.56 471.342 1007.69 469.852C1008.83 468.362 1009.61 466.659 1010.01 464.855C1010.4 463.051 1010.4 461.188 1009.99 459.388Z" fill="#FC9D9D"/>
<path d="M805.086 367.669L767.837 386.442C755.415 392.694 760.034 410.705 774.121 410.705L821.598 415.059L821.931 406.409V395.1L830.323 392.317" fill="#FC9D9D"/>
<path opacity="0.15" d="M998.034 475.558L923.604 483.349C913.572 485.1 894.149 489.674 892.083 490.059C891.793 490.098 891.494 490.076 891.212 489.994C890.931 489.912 890.666 489.772 890.444 489.583C890.231 489.394 890.051 489.162 889.932 488.903C889.821 488.642 889.761 488.362 889.77 488.078C889.77 488.078 890.325 488.995 891.844 488.537C892.638 488.308 904.582 484.11 912.138 481.36C916.219 479.909 920.428 478.835 924.722 478.152C940.943 475.558 983.23 468.692 994.61 466.254C995.396 466.092 996.147 465.78 996.804 465.337C997.47 464.894 998.034 464.329 998.461 463.675C998.896 463.021 999.178 462.291 999.314 461.528C999.442 460.765 999.417 459.984 999.229 459.232L992.681 432.08L1003.27 429.707L1010.03 459.543C1010.4 461.357 1010.39 463.224 1009.99 465.032C1009.58 466.839 1008.78 468.546 1007.66 470.048C1006.54 471.55 1005.1 472.814 1003.45 473.762C1001.79 474.71 999.946 475.321 998.034 475.558Z" fill="black"/>
<path opacity="0.3" d="M892.929 320.967C892.775 320.959 892.63 320.904 892.519 320.806C892.399 320.71 892.322 320.579 892.297 320.435L892.134 319.215C892.109 318.224 891.708 317.274 891.016 316.539C890.888 316.431 890.734 316.348 890.572 316.296C890.41 316.244 890.239 316.224 890.069 316.237C889.906 316.267 889.744 316.236 889.607 316.15C889.479 316.064 889.385 315.931 889.351 315.778C889.317 315.626 889.351 315.469 889.445 315.34C889.531 315.21 889.667 315.121 889.829 315.091C890.504 315.022 891.178 315.184 891.733 315.549C892.228 315.986 892.63 316.517 892.903 317.108C893.176 317.7 893.321 318.339 893.33 318.986L893.483 320.206C893.492 320.373 893.441 320.54 893.338 320.678C893.244 320.816 893.099 320.918 892.929 320.967Z" fill="black"/>
<path opacity="0.3" d="M936.717 317.841C936.871 317.826 937.016 317.754 937.119 317.64C937.23 317.526 937.281 317.378 937.272 317.227V316.008C937.187 315.526 937.204 315.035 937.332 314.561C937.452 314.088 937.682 313.644 937.99 313.258C938.101 313.12 938.246 313.008 938.416 312.929C938.579 312.851 938.758 312.81 938.946 312.808C939.108 312.818 939.262 312.767 939.381 312.666C939.501 312.566 939.569 312.424 939.578 312.272C939.595 312.12 939.535 311.971 939.432 311.856C939.33 311.742 939.185 311.672 939.023 311.662C938.69 311.67 938.365 311.742 938.066 311.872C937.768 312.003 937.494 312.19 937.272 312.423C936.478 313.184 936.154 314.404 936.239 316.081V317.309C936.077 317.612 936.316 317.841 936.717 317.841Z" fill="black"/>
<path d="M992.519 431.99L1003.11 429.625L992.519 431.99Z" fill="#461CFF"/>
<path opacity="0.15" d="M821.683 383.921L830.357 392.391L852.171 387.808L850.583 379.109C850.488 378.586 850.275 378.09 849.959 377.653C849.643 377.217 849.233 376.852 848.755 376.584C848.277 376.315 847.744 376.149 847.193 376.098C846.642 376.046 846.086 376.111 845.562 376.286L821.683 383.921Z" fill="black"/>
<path opacity="0.15" d="M830.357 392.391L821.683 383.921L806.794 388.651L790.957 386.442C790.718 386.36 790.478 386.589 790.393 386.818C790.395 386.935 790.435 387.05 790.507 387.145C790.578 387.239 790.679 387.311 790.794 387.35L818.328 396.834L828.573 392.743L830.357 392.391Z" fill="black"/>
<path opacity="0.2" d="M912.036 555.28C910.661 555.271 909.338 555.766 908.33 556.664C907.323 557.561 906.708 558.793 906.623 560.108L892.297 785.281H883.759L887.174 570.215C887.26 566.21 888.984 562.398 891.981 559.603C894.978 556.809 898.999 555.256 903.174 555.28H912.036Z" fill="black"/>
<path opacity="0.2" d="M892.374 794.135L892.929 785.281H883.777L883.614 794.135H892.374Z" fill="black"/>
<path opacity="0.15" d="M955.107 794.135L954.629 810.158L945.153 810.461L945.315 799.626C945.315 799.12 945.152 798.626 944.845 798.215C944.546 797.804 944.111 797.495 943.607 797.335L932.935 794.062H955.073L955.107 794.135Z" fill="black"/>
<path opacity="0.2" d="M965.053 523.938L957.651 794.135H955.09L955.346 787.237H945.468L948.977 523.963L965.053 523.938Z" fill="black"/>
<path d="M933.687 830.306V810.846C933.695 808.013 934.873 805.301 936.965 803.298C939.048 801.296 941.882 800.167 944.836 800.158H945.315C947.748 800.148 950.113 800.95 951.999 802.427C953.886 803.903 955.184 805.962 955.662 808.251C956.226 811.045 957.54 813.649 959.478 815.805L962.663 819.389C965.386 822.433 966.897 826.296 966.932 830.306H933.687Z" fill="#461CFF"/>
<path d="M952.956 810.543C952.913 810.548 952.87 810.544 952.828 810.53C952.785 810.516 952.742 810.492 952.717 810.461C950.992 809.488 949.02 808.975 947.022 808.975C945.016 808.975 943.052 809.488 941.328 810.461C941.285 810.494 941.242 810.518 941.191 810.532C941.14 810.546 941.089 810.55 941.029 810.543C940.978 810.536 940.926 810.519 940.884 810.492C940.841 810.465 940.798 810.429 940.773 810.387C940.739 810.348 940.721 810.302 940.704 810.254C940.687 810.206 940.687 810.156 940.696 810.106C940.704 810.057 940.721 810.008 940.747 809.966C940.773 809.922 940.807 809.885 940.85 809.855C942.711 808.822 944.828 808.277 946.979 808.277C949.131 808.277 951.248 808.822 953.109 809.855C953.348 809.929 953.348 810.232 953.271 810.387C953.186 810.467 953.075 810.521 952.956 810.543Z" fill="white"/>
<path d="M954.228 813.284C954.185 813.289 954.143 813.285 954.1 813.273C954.057 813.26 954.023 813.238 953.989 813.211C952.264 812.238 950.301 811.725 948.294 811.725C946.296 811.725 944.333 812.238 942.608 813.211C942.566 813.247 942.514 813.274 942.463 813.29C942.412 813.307 942.352 813.313 942.301 813.308C942.241 813.302 942.19 813.286 942.139 813.26C942.096 813.233 942.053 813.198 942.019 813.155C941.985 813.112 941.959 813.063 941.951 813.011C941.934 812.959 941.934 812.905 941.942 812.852C941.959 812.8 941.976 812.75 942.011 812.706C942.045 812.661 942.079 812.625 942.13 812.597C943.991 811.565 946.109 811.022 948.26 811.022C950.412 811.022 952.529 811.565 954.39 812.597C954.629 812.679 954.629 812.981 954.544 813.137C954.458 813.292 954.39 813.284 954.228 813.284Z" fill="white"/>
<path d="M955.739 816.189C955.696 816.194 955.654 816.19 955.611 816.175C955.568 816.161 955.534 816.138 955.5 816.108C953.775 815.135 951.812 814.621 949.805 814.621C947.808 814.621 945.844 815.135 944.119 816.108C944.077 816.138 944.034 816.16 943.983 816.172C943.932 816.184 943.88 816.188 943.829 816.181C943.778 816.174 943.727 816.157 943.675 816.132C943.633 816.107 943.599 816.074 943.564 816.034C943.53 815.994 943.513 815.949 943.496 815.9C943.488 815.852 943.479 815.802 943.488 815.752C943.496 815.703 943.513 815.656 943.539 815.612C943.565 815.57 943.599 815.532 943.641 815.502C945.503 814.468 947.62 813.923 949.771 813.923C951.923 813.923 954.04 814.468 955.901 815.502C956.14 815.576 956.14 815.878 956.055 816.034C956.021 816.08 955.97 816.119 955.918 816.146C955.859 816.173 955.799 816.188 955.739 816.189Z" fill="white"/>
<path d="M965.455 834.348H935.121C934.737 834.348 934.378 834.201 934.105 833.947C933.84 833.685 933.687 833.342 933.687 832.973V830.379H966.983V832.973C966.966 833.35 966.795 833.702 966.513 833.955C966.223 834.217 965.847 834.356 965.455 834.348Z" fill="#461CFF"/>
<path opacity="0.2" d="M965.455 834.348H935.121C934.737 834.348 934.378 834.201 934.105 833.947C933.84 833.685 933.687 833.342 933.687 832.973V830.379H966.983V832.973C966.966 833.35 966.795 833.702 966.513 833.955C966.223 834.217 965.847 834.356 965.455 834.348Z" fill="black"/>
<path d="M929.785 785.281L930.348 794.135H958.206L958.368 785.281H929.785Z" fill="#461CFF"/>
<path opacity="0.2" d="M945.468 785.281V794.135H958.206L958.369 785.281H945.468Z" fill="black"/>
<path d="M919.992 468.087L922.938 483.349L927.958 482.808L925.012 467.015L919.992 468.087Z" fill="#010517"/>
<path d="M924.219 480.828C925.209 480.828 926.182 480.546 927.01 480.017C927.83 479.489 928.479 478.737 928.854 477.858C929.239 476.979 929.333 476.011 929.145 475.078C928.948 474.144 928.47 473.287 927.77 472.614C927.07 471.941 926.174 471.483 925.2 471.297C924.227 471.111 923.211 471.207 922.298 471.571C921.384 471.935 920.599 472.552 920.044 473.343C919.497 474.134 919.198 475.065 919.198 476.016C919.198 476.649 919.326 477.275 919.574 477.859C919.83 478.444 920.197 478.974 920.667 479.421C921.136 479.868 921.683 480.223 922.298 480.464C922.904 480.705 923.561 480.829 924.219 480.828Z" fill="#C73C51"/>
<path d="M924.218 480.067C925.055 480.059 925.866 479.814 926.558 479.365C927.241 478.915 927.779 478.279 928.094 477.538C928.402 476.798 928.487 475.984 928.316 475.201C928.146 474.418 927.744 473.7 927.147 473.138C926.558 472.575 925.806 472.194 924.987 472.041C924.167 471.888 923.322 471.97 922.545 472.278C921.777 472.586 921.119 473.105 920.658 473.77C920.197 474.435 919.95 475.217 919.95 476.016C919.95 476.551 920.061 477.082 920.274 477.576C920.488 478.07 920.803 478.519 921.205 478.895C921.597 479.272 922.067 479.57 922.588 479.771C923.109 479.971 923.664 480.073 924.218 480.067Z" fill="white"/>
<path d="M927.002 476.401L924.133 476.245L922.05 474.797C921.973 474.723 921.888 474.568 921.973 474.494C922.059 474.421 922.212 474.339 922.289 474.421L924.202 475.787L926.908 475.943C926.942 475.939 926.976 475.942 927.002 475.952C927.036 475.962 927.062 475.979 927.087 476.001C927.113 476.023 927.13 476.05 927.138 476.079C927.147 476.11 927.147 476.141 927.147 476.172C927.241 476.27 927.173 476.401 927.002 476.401Z" fill="#010517"/>
<path d="M564.209 279.625H786.739C791.299 279.625 795.815 280.485 800.027 282.158C804.239 283.831 808.068 286.282 811.291 289.372C814.516 292.463 817.074 296.132 818.818 300.17C820.563 304.208 821.461 308.535 821.461 312.906V800.436C821.461 809.263 817.803 817.729 811.291 823.972C804.78 830.216 795.949 833.718 786.739 833.718H558.925C554.147 833.718 549.565 831.901 546.187 828.661C542.808 825.42 540.91 821.034 540.91 816.451V301.965C540.91 296.042 543.365 290.362 547.734 286.174C552.104 281.985 558.031 279.633 564.209 279.633V279.625Z" fill="#461CFF"/>
<path opacity="0.2" d="M564.209 279.625H786.739C791.299 279.625 795.815 280.485 800.027 282.158C804.239 283.831 808.068 286.282 811.291 289.372C814.516 292.463 817.074 296.132 818.818 300.17C820.563 304.208 821.461 308.535 821.461 312.906V800.436C821.461 809.263 817.803 817.729 811.291 823.972C804.78 830.216 795.949 833.718 786.739 833.718H563.176C557.271 833.718 551.608 831.468 547.432 827.466C543.256 823.464 540.91 818.036 540.91 812.376V301.965C540.91 296.042 543.365 290.362 547.734 286.174C552.104 281.985 558.031 279.633 564.209 279.633V279.625Z" fill="black"/>
<path d="M799.153 287.3H535.882V820.044H799.153V287.3Z" fill="#461CFF"/>
<path opacity="0.8" d="M799.153 287.3H535.882V820.044H799.153V287.3Z" fill="white"/>
<path d="M794.123 289.404H539.16V351.597H794.123V289.404Z" fill="#461CFF"/>
<path d="M794.099 780.387H539.135V823.554H794.099V780.387Z" fill="#461CFF"/>
<path opacity="0.4" d="M794.123 289.404H539.16V351.597H794.123V289.404Z" fill="white"/>
<path opacity="0.4" d="M794.099 780.387H539.135V823.554H794.099V780.387Z" fill="white"/>
<path d="M774.351 817.76H558.907C548.056 817.76 539.271 809.724 539.271 799.806V312.202C539.271 302.292 548.073 294.256 558.907 294.256H597.685C599.953 294.223 602.175 294.877 604.035 296.124C605.894 297.372 607.295 299.149 608.041 301.204L609.808 306.376C610.552 308.429 611.953 310.206 613.81 311.454C615.667 312.703 617.887 313.359 620.155 313.332H713.146C715.413 313.361 717.632 312.706 719.489 311.459C721.347 310.212 722.747 308.436 723.493 306.384L725.269 301.204C726.013 299.151 727.414 297.374 729.271 296.127C731.128 294.88 733.348 294.225 735.617 294.256H774.394C785.254 294.256 794.03 302.292 794.03 312.202V799.806C793.988 809.724 785.228 817.76 774.351 817.76ZM526.388 304.739V807.957C526.388 814.703 529.183 821.173 534.159 825.944C539.135 830.715 545.884 833.399 552.923 833.399H780.379C783.863 833.399 787.315 832.744 790.534 831.468C793.754 830.191 796.679 828.317 799.143 825.952C801.608 823.587 803.562 820.788 804.895 817.699C806.229 814.613 806.914 811.305 806.913 807.965V304.747C806.913 298.002 804.117 291.533 799.141 286.763C794.165 281.993 787.415 279.313 780.379 279.313H552.897C545.866 279.32 539.123 282.002 534.154 286.768C529.183 291.536 526.39 297.999 526.388 304.739Z" fill="#461CFF"/>
<path d="M770.842 331.949H753.332C753.218 331.949 753.11 331.905 753.03 331.829C752.95 331.752 752.905 331.648 752.905 331.54C752.905 331.431 752.95 331.327 753.03 331.25C753.11 331.174 753.218 331.13 753.332 331.13H770.842C770.956 331.13 771.064 331.174 771.144 331.25C771.224 331.327 771.269 331.431 771.269 331.54C771.269 331.648 771.224 331.752 771.144 331.829C771.064 331.905 770.956 331.949 770.842 331.949Z" fill="white"/>
<path d="M770.842 337.464H753.332C753.221 337.464 753.114 337.422 753.036 337.346C752.957 337.272 752.914 337.17 752.914 337.063C752.914 336.956 752.957 336.853 753.036 336.777C753.113 336.7 753.22 336.657 753.332 336.654H770.842C770.955 336.654 771.063 336.697 771.144 336.774C771.224 336.85 771.269 336.954 771.269 337.063C771.269 337.172 771.224 337.276 771.144 337.353C771.063 337.429 770.955 337.472 770.842 337.472V337.464Z" fill="white"/>
<path d="M770.842 342.98H753.332C753.218 342.98 753.11 342.937 753.03 342.86C752.95 342.784 752.905 342.68 752.905 342.571C752.905 342.462 752.95 342.358 753.03 342.281C753.11 342.205 753.218 342.162 753.332 342.162H770.842C770.956 342.162 771.064 342.205 771.144 342.281C771.224 342.358 771.269 342.462 771.269 342.571C771.269 342.68 771.224 342.784 771.144 342.86C771.064 342.937 770.956 342.98 770.842 342.98Z" fill="white"/>
<path d="M568.674 329.052L562.049 334.584C561.947 334.671 561.865 334.778 561.809 334.898C561.753 335.018 561.725 335.148 561.725 335.279V344.682C561.724 344.763 561.739 344.843 561.772 344.919C561.803 344.993 561.85 345.061 561.91 345.118C561.97 345.175 562.041 345.22 562.119 345.252C562.197 345.282 562.281 345.297 562.365 345.296H566.327C566.412 345.297 566.496 345.282 566.574 345.252C566.653 345.221 566.724 345.176 566.785 345.119C566.846 345.062 566.893 344.994 566.926 344.919C566.959 344.844 566.975 344.763 566.975 344.682V339.772C566.978 339.61 567.046 339.455 567.166 339.341C567.285 339.225 567.447 339.161 567.616 339.158H571.031C571.201 339.158 571.365 339.223 571.487 339.337C571.608 339.452 571.678 339.608 571.68 339.772V344.682C571.679 344.763 571.694 344.844 571.726 344.919C571.758 344.995 571.805 345.063 571.864 345.121C571.924 345.18 571.995 345.225 572.073 345.256C572.152 345.288 572.235 345.304 572.32 345.304H576.281C576.454 345.304 576.619 345.238 576.741 345.121C576.862 345.005 576.93 344.847 576.93 344.682V335.279C576.932 335.147 576.903 335.016 576.845 334.896C576.788 334.776 576.703 334.669 576.597 334.584L569.981 329.052C569.802 328.896 569.569 328.81 569.328 328.81C569.086 328.81 568.854 328.896 568.674 329.052Z" stroke="white" stroke-width="1.64" stroke-miterlimit="10"/>
<path d="M588.652 794.651H572.721C572.612 794.623 572.515 794.562 572.446 794.476C572.378 794.39 572.34 794.284 572.34 794.176C572.34 794.068 572.378 793.963 572.446 793.877C572.515 793.791 572.612 793.729 572.721 793.702H588.652C588.761 793.729 588.858 793.791 588.927 793.877C588.996 793.963 589.034 794.068 589.034 794.176C589.034 794.284 588.996 794.39 588.927 794.476C588.858 794.562 588.761 794.623 588.652 794.651Z" fill="white" stroke="white" stroke-width="0.4" stroke-miterlimit="10"/>
<path d="M588.652 799.806H572.721C572.606 799.792 572.502 799.735 572.43 799.648C572.358 799.561 572.325 799.45 572.337 799.34C572.325 799.229 572.357 799.117 572.429 799.028C572.501 798.94 572.606 798.882 572.721 798.865H588.652C588.761 798.893 588.858 798.954 588.927 799.04C588.996 799.126 589.033 799.232 589.033 799.34C589.033 799.448 588.996 799.553 588.927 799.639C588.858 799.725 588.761 799.787 588.652 799.814V799.806Z" fill="white" stroke="white" stroke-width="0.4" stroke-miterlimit="10"/>
<path d="M588.652 804.954H572.721C572.61 804.929 572.511 804.869 572.439 804.784C572.368 804.698 572.33 804.593 572.33 804.483C572.33 804.374 572.368 804.268 572.439 804.183C572.511 804.097 572.61 804.037 572.721 804.013H588.652C588.767 804.029 588.872 804.087 588.944 804.175C589.015 804.265 589.048 804.376 589.036 804.487C589.048 804.598 589.015 804.708 588.943 804.796C588.872 804.882 588.767 804.94 588.652 804.954Z" fill="white" stroke="white" stroke-width="0.4" stroke-miterlimit="10"/>
<path d="M752.307 793.08L760.896 798.677L752.307 805.592" stroke="white" stroke-width="1.61" stroke-miterlimit="10" stroke-linecap="round"/>
<path d="M672.798 796.697V806.574H659.061V796.697" stroke="white" stroke-width="1.61" stroke-miterlimit="10" stroke-linecap="round"/>
<path d="M656.995 798.014L665.925 792.089L674.855 798.014" stroke="white" stroke-width="1.61" stroke-miterlimit="10" stroke-linecap="round"/>
<path d="M746.912 304.576L746.391 305.075L746.092 305.361C745.431 304.723 744.643 304.216 743.777 303.871C742.91 303.526 741.981 303.347 741.042 303.347C740.103 303.347 739.174 303.526 738.308 303.871C737.441 304.216 736.654 304.723 735.992 305.361L735.711 305.083L735.19 304.584L735.847 304.027C736.319 303.657 736.835 303.341 737.384 303.086C738.028 302.783 738.712 302.563 739.416 302.431C739.749 302.374 740.09 302.341 740.432 302.309C740.543 302.309 741.286 302.309 741.286 302.309L741.977 302.358C742.613 302.426 743.238 302.569 743.838 302.783C744.274 302.94 744.696 303.129 745.102 303.348C745.526 303.584 745.927 303.858 746.297 304.166C746.494 304.322 746.673 304.485 746.852 304.641L746.912 304.576Z" fill="white"/>
<path d="M737.64 306.932C737.358 306.67 737.085 306.417 736.786 306.114C737.906 305.044 739.423 304.444 741.004 304.444C742.585 304.444 744.101 305.044 745.221 306.114L744.367 306.932C743.469 306.072 742.252 305.589 740.982 305.589C739.713 305.589 738.495 306.072 737.597 306.932H737.64Z" fill="white"/>
<path d="M743.616 307.693L742.763 308.512C742.535 308.292 742.265 308.116 741.966 307.997C741.668 307.877 741.348 307.816 741.025 307.816C740.702 307.816 740.381 307.877 740.084 307.997C739.786 308.116 739.515 308.292 739.288 308.512L738.434 307.693C738.77 307.359 739.172 307.093 739.617 306.911C740.062 306.729 740.541 306.636 741.025 306.636C741.509 306.636 741.987 306.729 742.433 306.911C742.879 307.093 743.281 307.359 743.616 307.693Z" fill="white"/>
<path d="M741.789 309.232C741.789 309.375 741.744 309.515 741.661 309.634C741.577 309.752 741.46 309.845 741.321 309.899C741.183 309.953 741.031 309.966 740.884 309.936C740.738 309.908 740.604 309.837 740.5 309.735C740.396 309.633 740.326 309.503 740.299 309.362C740.271 309.221 740.289 309.076 740.348 308.945C740.408 308.814 740.507 308.702 740.632 308.625C740.759 308.548 740.906 308.508 741.055 308.512C741.152 308.512 741.249 308.532 741.338 308.569C741.428 308.606 741.509 308.659 741.577 308.726C741.646 308.793 741.7 308.872 741.735 308.958C741.772 309.045 741.79 309.139 741.789 309.232Z" fill="white"/>
<path d="M558.412 306.057C558.412 305.648 558.54 305.247 558.777 304.906C559.014 304.566 559.351 304.301 559.746 304.144C560.14 303.987 560.575 303.946 560.994 304.026C561.413 304.106 561.797 304.303 562.1 304.593C562.402 304.882 562.608 305.252 562.691 305.652C562.774 306.054 562.731 306.471 562.568 306.849C562.404 307.227 562.128 307.551 561.773 307.779C561.417 308.006 561 308.127 560.572 308.127C559.999 308.127 559.45 307.909 559.045 307.521C558.64 307.133 558.412 306.606 558.412 306.057Z" fill="white"/>
<path d="M565.182 306.057C565.182 305.648 565.309 305.247 565.546 304.906C565.784 304.566 566.122 304.301 566.516 304.144C566.91 303.987 567.345 303.946 567.764 304.026C568.183 304.106 568.568 304.303 568.87 304.593C569.172 304.882 569.378 305.252 569.461 305.652C569.544 306.054 569.502 306.471 569.338 306.849C569.175 307.227 568.898 307.551 568.543 307.779C568.188 308.006 567.769 308.127 567.342 308.127C566.77 308.127 566.22 307.909 565.815 307.521C565.41 307.133 565.182 306.606 565.182 306.057Z" fill="white"/>
<path d="M572.012 306.057C572.012 305.648 572.139 305.247 572.376 304.906C572.614 304.566 572.952 304.301 573.346 304.144C573.74 303.987 574.175 303.946 574.594 304.026C575.013 304.106 575.398 304.303 575.7 304.593C576.002 304.882 576.208 305.252 576.291 305.652C576.374 306.054 576.332 306.471 576.168 306.849C576.005 307.227 575.728 307.551 575.373 307.779C575.018 308.006 574.599 308.127 574.172 308.127C573.6 308.127 573.05 307.909 572.645 307.521C572.24 307.133 572.012 306.606 572.012 306.057Z" fill="white"/>
<path d="M578.843 306.057C578.843 305.648 578.969 305.247 579.206 304.906C579.444 304.566 579.782 304.301 580.176 304.144C580.571 303.987 581.005 303.946 581.424 304.026C581.843 304.106 582.228 304.303 582.53 304.593C582.832 304.882 583.038 305.252 583.121 305.652C583.204 306.054 583.162 306.471 582.998 306.849C582.835 307.227 582.558 307.551 582.203 307.779C581.848 308.006 581.429 308.127 581.003 308.127C580.43 308.127 579.88 307.909 579.475 307.521C579.071 307.133 578.843 306.606 578.843 306.057Z" fill="white"/>
<path d="M780.327 309.87H766.599V303.774H780.327V309.87ZM767.291 309.207H779.636V304.42H767.291V309.207Z" fill="white"/>
<path d="M776.597 304.805H767.735V308.831H776.597V304.805Z" fill="white"/>
<path d="M781.565 305.189H780.344V308.454H781.565V305.189Z" fill="white"/>
<path d="M712.719 334.224H620.557C619.024 334.224 617.782 335.414 617.782 336.883V337.235C617.782 338.704 619.024 339.895 620.557 339.895H712.719C714.252 339.895 715.494 338.704 715.494 337.235V336.883C715.494 335.414 714.252 334.224 712.719 334.224Z" fill="white"/>
<path d="M667.521 552.67C709.156 552.67 742.908 520.318 742.908 480.411C742.908 440.503 709.156 408.152 667.521 408.152C625.888 408.152 592.135 440.503 592.135 480.411C592.135 520.318 625.888 552.67 667.521 552.67Z" fill="white"/>
<path d="M728.599 522.489L689.497 511.147H689.412V511.196L686.936 510.157L683.674 510.845L663.073 511.368L653.972 509.625L651.411 508.807V508.872L618.969 517.759C618.115 517.98 617.312 518.16 616.476 518.332C612.95 519.145 609.595 520.529 606.555 522.424C613.538 531.663 622.705 539.185 633.306 544.374C643.906 549.563 655.637 552.272 667.54 552.278C679.443 552.283 691.178 549.586 701.783 544.407C712.389 539.228 721.564 531.714 728.556 522.481L728.599 522.489ZM689.412 511.229C689.412 511.229 689.412 511.336 689.412 511.409V511.229Z" fill="#461CFF"/>
<path d="M651.411 475.975L651.65 507.408C651.643 508.178 651.894 508.93 652.367 509.552L652.692 510.084C654.566 512.764 657.006 515.037 659.854 516.757C662.702 518.476 665.895 519.604 669.226 520.066C672.558 520.529 675.953 520.317 679.193 519.444C682.433 518.57 685.446 517.053 688.037 514.993C688.585 514.552 689.005 513.983 689.256 513.341C689.507 512.699 689.581 512.005 689.471 511.327L683.495 473.479L651.411 475.975Z" fill="#FC9D9D"/>
<path d="M687.021 460.411C687.021 460.411 693.552 501.761 669.75 503.447C646.502 505.084 645.785 463.308 645.785 463.308L645.153 451.327L675.086 446.294L682.65 450.034L687.021 460.411Z" fill="#FC9D9D"/>
<path opacity="0.15" d="M687.585 500.002L685.877 488.635C683.726 496 679.269 502.064 671.466 503.283H671.543L669.835 503.512C663.628 503.971 658.455 501.221 654.553 495.329C654.468 495.246 654.356 495.194 654.235 495.181C654.115 495.169 653.994 495.197 653.893 495.261C653.791 495.325 653.717 495.421 653.681 495.532C653.646 495.642 653.652 495.762 653.699 495.869C657.831 502.121 663.33 505.018 669.921 504.56C671.3 504.471 672.663 504.216 673.976 503.799C678.853 504.268 683.731 502.907 687.585 500.002Z" fill="black"/>
<path d="M681.369 451.172C681.369 451.172 688.934 446.368 692.519 454.609C695.542 461.556 690.445 469.11 690.445 469.11L686.074 468.651C684.238 468.569 682.966 467.735 682.804 466.057L681.369 451.172Z" fill="#010517"/>
<path d="M686.791 446.139C687.422 453.995 680.422 456.057 677.553 456.286L654.066 458.193C653.146 458.276 652.294 458.695 651.687 459.364C651.08 460.033 650.764 460.9 650.805 461.785L651.206 468.954C651.246 469.432 651.089 469.906 650.77 470.275C650.452 470.644 649.996 470.88 649.499 470.934L648.065 471.09L646.502 472.997C637.273 470.861 633.448 445.754 650.404 440.722C651.309 440.443 652.147 439.996 652.87 439.407C653.594 438.817 654.189 438.096 654.621 437.285C657.097 432.375 667.206 431.106 672.294 436.597C672.788 437.162 673.413 437.608 674.118 437.901C674.824 438.193 675.59 438.324 676.358 438.283C682.488 438.127 686.466 441.794 686.791 446.139Z" fill="#010517"/>
<path d="M648.176 473.529C648.106 472.863 647.85 472.227 647.435 471.69C647.02 471.152 646.46 470.732 645.816 470.474C645.171 470.218 644.467 470.132 643.776 470.227C643.085 470.322 642.434 470.595 641.892 471.016L641.807 471.09C637.751 474.445 640.372 485.002 649.294 484.061L648.176 473.529Z" fill="#FC9D9D"/>
<path d="M692.519 467.964L692.442 467.882C691.841 467.549 691.159 467.376 690.465 467.383C689.772 467.389 689.092 467.574 688.498 467.917C687.905 468.261 687.417 468.751 687.089 469.336C686.76 469.921 686.6 470.581 686.628 471.245L687.107 481.319C696.096 481.008 696.976 470.705 692.519 467.964Z" fill="#FC9D9D"/>
<path d="M649.294 474.83C649.308 475.092 649.217 475.349 649.039 475.549C648.861 475.749 648.61 475.875 648.338 475.902C648.075 475.936 647.808 475.876 647.588 475.735C647.368 475.593 647.209 475.379 647.142 475.132L646.109 468.34L649.055 468.422L649.294 474.83Z" fill="#010517"/>
<path d="M688.455 472.08C688.477 472.344 688.388 472.605 688.209 472.806C688.029 473.007 687.774 473.131 687.499 473.152C687.239 473.188 686.972 473.13 686.754 472.99C686.534 472.849 686.377 472.636 686.313 472.391L685.271 465.599L688.216 465.673L688.455 472.08Z" fill="#010517"/>
<path d="M677.715 457.276C677.318 457.325 676.916 457.325 676.52 457.276C676.447 457.279 676.374 457.266 676.307 457.24C676.239 457.213 676.179 457.173 676.128 457.123C676.077 457.072 676.039 457.012 676.014 456.946C675.989 456.88 675.98 456.81 675.985 456.74C675.99 456.671 676.01 456.603 676.045 456.542C676.08 456.479 676.127 456.425 676.185 456.383C676.243 456.34 676.309 456.309 676.38 456.293C676.451 456.276 676.525 456.274 676.597 456.286C676.674 456.286 681.369 456.515 683.367 453.537C683.402 453.482 683.449 453.434 683.505 453.396C683.56 453.359 683.622 453.332 683.688 453.319C683.755 453.305 683.823 453.304 683.89 453.316C683.956 453.328 684.019 453.353 684.076 453.389C684.134 453.424 684.185 453.469 684.225 453.522C684.264 453.575 684.293 453.636 684.308 453.7C684.323 453.764 684.325 453.83 684.313 453.895C684.301 453.96 684.276 454.022 684.238 454.077C682.488 456.63 679.38 457.203 677.715 457.276Z" fill="#FC9D9D"/>
<path d="M660.043 479.404C660.451 479.403 660.849 479.285 661.187 479.066C661.526 478.848 661.79 478.538 661.945 478.176C662.1 477.814 662.139 477.417 662.059 477.033C661.978 476.649 661.781 476.297 661.491 476.02C661.203 475.745 660.834 475.557 660.434 475.481C660.033 475.405 659.618 475.445 659.241 475.595C658.864 475.746 658.542 475.999 658.315 476.325C658.088 476.65 657.968 477.033 657.968 477.424C657.968 477.685 658.022 477.943 658.126 478.183C658.23 478.425 658.383 478.643 658.576 478.827C658.769 479.011 658.998 479.157 659.25 479.256C659.501 479.355 659.77 479.405 660.043 479.404Z" fill="black"/>
<path d="M659.095 477.653C659.222 477.653 659.343 477.605 659.433 477.519C659.523 477.433 659.573 477.317 659.573 477.195C659.573 477.073 659.523 476.957 659.433 476.871C659.343 476.785 659.222 476.736 659.095 476.736C658.969 476.736 658.847 476.785 658.757 476.871C658.667 476.957 658.617 477.073 658.617 477.195C658.617 477.317 658.667 477.433 658.757 477.519C658.847 477.605 658.969 477.653 659.095 477.653Z" fill="white"/>
<path d="M675.957 478.267C676.367 478.268 676.769 478.153 677.112 477.935C677.454 477.718 677.721 477.408 677.879 477.045C678.038 476.682 678.08 476.281 678.001 475.895C677.922 475.509 677.725 475.154 677.435 474.875C677.145 474.596 676.775 474.406 676.373 474.328C675.97 474.251 675.553 474.29 675.173 474.44C674.794 474.591 674.469 474.845 674.241 475.173C674.013 475.5 673.891 475.885 673.891 476.278C673.891 476.804 674.108 477.308 674.495 477.682C674.883 478.054 675.408 478.264 675.957 478.267Z" fill="black"/>
<path d="M675.009 476.581C675.104 476.581 675.196 476.554 675.274 476.504C675.353 476.453 675.414 476.382 675.45 476.298C675.487 476.214 675.496 476.122 675.478 476.034C675.46 475.944 675.414 475.863 675.347 475.799C675.28 475.735 675.195 475.691 675.102 475.673C675.01 475.655 674.913 475.664 674.826 475.7C674.738 475.734 674.664 475.793 674.611 475.868C674.559 475.943 674.531 476.032 674.531 476.123C674.531 476.245 674.581 476.361 674.671 476.447C674.76 476.533 674.883 476.581 675.009 476.581Z" fill="white"/>
<path opacity="0.3" d="M669.033 486.81L670.74 486.655C670.899 486.645 671.047 486.575 671.152 486.461C671.257 486.346 671.31 486.197 671.299 486.045C671.289 485.893 671.216 485.751 671.097 485.651C670.978 485.55 670.822 485.499 670.663 485.509L668.956 485.664C668.788 485.674 668.619 485.653 668.46 485.601C668.3 485.548 668.153 485.466 668.027 485.36C667.9 485.253 667.797 485.124 667.723 484.979C667.649 484.834 667.605 484.676 667.594 484.515C667.584 484.353 667.606 484.191 667.661 484.039C667.715 483.886 667.801 483.745 667.912 483.623C668.023 483.502 668.158 483.403 668.309 483.333C668.461 483.262 668.625 483.219 668.794 483.209C668.872 483.204 668.949 483.185 669.02 483.151C669.09 483.119 669.153 483.072 669.205 483.015C669.257 482.959 669.296 482.893 669.322 482.821C669.348 482.75 669.358 482.675 669.353 482.6C669.348 482.524 669.327 482.451 669.293 482.383C669.258 482.316 669.21 482.255 669.15 482.205C669.092 482.155 669.023 482.118 668.949 482.093C668.874 482.069 668.795 482.059 668.717 482.064C668.395 482.08 668.081 482.159 667.791 482.295C667.503 482.432 667.247 482.624 667.037 482.859C666.829 483.095 666.673 483.368 666.578 483.664C666.484 483.958 666.453 484.269 666.488 484.576C666.486 484.888 666.552 485.196 666.681 485.483C666.811 485.768 667.002 486.025 667.242 486.236C667.482 486.446 667.766 486.606 668.074 486.705C668.382 486.804 668.709 486.84 669.033 486.81Z" fill="black"/>
<path d="M681.694 471.016L672.695 471.475L671.5 471.548L663.62 472.006H663.543L653.435 472.538C653.041 472.56 652.656 472.657 652.303 472.822C651.948 472.988 651.631 473.22 651.372 473.504C651.112 473.788 650.914 474.119 650.789 474.477C650.663 474.835 650.614 475.214 650.643 475.591L650.805 477.808C650.958 479.835 651.935 481.722 653.523 483.066C655.113 484.41 657.189 485.102 659.305 484.995C661.421 484.888 663.409 483.989 664.842 482.493C666.274 480.996 667.037 479.02 666.967 476.99L666.804 474.781C666.765 474.173 666.512 473.596 666.087 473.144L669.195 472.988C668.836 473.505 668.668 474.121 668.717 474.74L668.879 476.957C668.935 477.974 669.2 478.97 669.658 479.889C670.115 480.808 670.757 481.631 671.547 482.312C672.336 482.993 673.258 483.517 674.259 483.857C675.261 484.196 676.322 484.344 677.382 484.29C678.444 484.236 679.483 483.983 680.441 483.544C681.399 483.105 682.258 482.49 682.969 481.733C683.679 480.976 684.227 480.092 684.581 479.132C684.935 478.173 685.088 477.155 685.032 476.139L684.878 473.93C684.887 473.533 684.808 473.139 684.65 472.773C684.49 472.407 684.253 472.076 683.954 471.802C683.655 471.528 683.299 471.317 682.91 471.182C682.521 471.047 682.107 470.99 681.694 471.016ZM665.609 474.756L665.771 476.966C665.823 477.826 665.699 478.686 665.403 479.5C665.109 480.313 664.65 481.063 664.052 481.706C663.454 482.349 662.731 482.874 661.922 483.249C661.113 483.624 660.236 483.843 659.338 483.893C658.442 483.943 657.543 483.823 656.694 483.54C655.846 483.257 655.064 482.817 654.393 482.245C653.721 481.672 653.175 480.978 652.783 480.203C652.392 479.428 652.163 478.587 652.111 477.727L651.949 475.517C651.93 475.059 652.098 474.612 652.416 474.27C652.735 473.928 653.179 473.718 653.657 473.684L663.765 473.152H663.85C664.077 473.146 664.301 473.182 664.512 473.259C664.723 473.336 664.916 473.453 665.079 473.602C665.243 473.751 665.374 473.93 665.465 474.128C665.556 474.326 665.605 474.54 665.609 474.756ZM683.854 475.975C683.96 477.712 683.341 479.417 682.134 480.716C680.928 482.015 679.233 482.802 677.421 482.903C675.61 483.003 673.831 482.411 672.475 481.254C671.12 480.098 670.3 478.473 670.194 476.736L670.032 474.527C670.013 474.069 670.18 473.622 670.499 473.28C670.817 472.938 671.262 472.727 671.739 472.694L672.934 472.62L681.924 472.162C682.396 472.141 682.858 472.295 683.214 472.592C683.57 472.889 683.793 473.307 683.837 473.758L683.854 475.975Z" fill="#010517"/>
<path d="M663.936 489.936L674.053 489.249C674.112 489.247 674.171 489.259 674.225 489.283C674.28 489.307 674.328 489.342 674.365 489.386C674.403 489.43 674.43 489.482 674.444 489.538C674.458 489.593 674.458 489.651 674.446 489.707C674.131 490.795 673.476 491.763 672.568 492.482C671.66 493.2 670.543 493.634 669.37 493.723C668.196 493.813 667.022 493.554 666.007 492.982C664.992 492.41 664.185 491.552 663.697 490.525V490.443C663.666 490.397 663.648 490.344 663.645 490.289C663.641 490.234 663.652 490.179 663.675 490.128C663.698 490.078 663.734 490.035 663.78 490.002C663.826 489.968 663.879 489.945 663.936 489.936Z" fill="white"/>
<path opacity="0.3" d="M645.946 479.028C645.794 479.02 645.648 478.965 645.534 478.867C645.419 478.771 645.342 478.64 645.315 478.496L645.152 477.268C645.124 476.28 644.728 475.333 644.034 474.601C643.905 474.489 643.754 474.405 643.589 474.354C643.424 474.301 643.251 474.282 643.078 474.298C642.921 474.325 642.759 474.291 642.627 474.206C642.495 474.12 642.402 473.989 642.369 473.84C642.337 473.689 642.367 473.532 642.456 473.403C642.544 473.274 642.682 473.183 642.839 473.152C643.513 473.078 644.193 473.241 644.752 473.61C645.25 474.046 645.648 474.575 645.923 475.165C646.198 475.755 646.342 476.393 646.348 477.039L646.502 478.267C646.508 478.435 646.458 478.599 646.358 478.736C646.257 478.874 646.113 478.976 645.946 479.028Z" fill="black"/>
<path opacity="0.3" d="M689.736 475.902C689.892 475.885 690.036 475.813 690.139 475.699C690.241 475.585 690.296 475.439 690.291 475.288V474.069C690.201 473.587 690.218 473.094 690.342 472.62C690.466 472.146 690.693 471.703 691.008 471.319C691.121 471.178 691.266 471.065 691.432 470.985C691.597 470.906 691.779 470.863 691.964 470.861C692.116 470.853 692.262 470.798 692.377 470.7C692.492 470.604 692.569 470.473 692.596 470.329C692.589 470.182 692.53 470.041 692.43 469.93C692.329 469.818 692.192 469.743 692.041 469.715C691.711 469.722 691.385 469.794 691.085 469.925C690.784 470.056 690.514 470.243 690.291 470.476C689.497 471.245 689.173 472.465 689.258 474.142V475.362C689.096 475.673 689.335 475.902 689.736 475.902Z" fill="black"/>
<path d="M667.521 559.65C651.171 559.65 635.188 555.003 621.593 546.296C607.999 537.588 597.403 525.214 591.146 510.734C584.889 496.255 583.251 480.323 586.442 464.952C589.631 449.581 597.505 435.462 609.066 424.38C620.627 413.298 635.357 405.752 651.393 402.694C667.43 399.636 684.052 401.206 699.157 407.203C714.263 413.201 727.174 423.357 736.258 436.388C745.342 449.419 750.19 464.739 750.19 480.411C750.165 501.419 741.448 521.56 725.949 536.415C710.451 551.27 689.439 559.626 667.521 559.65ZM667.521 402.947C651.537 402.946 635.911 407.487 622.62 415.998C609.329 424.509 598.97 436.607 592.852 450.761C586.733 464.916 585.131 480.491 588.249 495.518C591.366 510.545 599.063 524.349 610.365 535.183C621.667 546.017 636.067 553.395 651.743 556.385C667.421 559.375 683.67 557.841 698.438 551.978C713.206 546.115 725.827 536.187 734.708 523.448C743.589 510.709 748.329 495.732 748.329 480.411C748.304 459.875 739.783 440.187 724.634 425.665C709.485 411.143 688.946 402.974 667.521 402.947ZM667.521 553.422C652.456 553.422 637.729 549.14 625.203 541.118C612.677 533.095 602.913 521.692 597.149 508.351C591.383 495.01 589.875 480.33 592.813 466.167C595.753 452.004 603.007 438.995 613.66 428.784C624.313 418.573 637.885 411.619 652.661 408.802C667.437 405.985 682.752 407.431 696.671 412.956C710.59 418.483 722.486 427.841 730.856 439.848C739.225 451.854 743.693 465.97 743.693 480.411C743.668 499.768 735.635 518.324 721.355 532.012C707.076 545.699 687.716 553.399 667.521 553.422ZM667.521 409.183C652.831 409.183 638.471 413.358 626.255 421.181C614.041 429.005 604.521 440.123 598.9 453.133C593.278 466.142 591.807 480.457 594.673 494.268C597.539 508.078 604.613 520.764 615 530.72C625.388 540.677 638.623 547.458 653.031 550.205C667.439 552.952 682.373 551.542 695.946 546.154C709.518 540.765 721.118 531.64 729.28 519.932C737.442 508.224 741.798 494.459 741.798 480.378C741.773 461.502 733.94 443.405 720.016 430.056C706.093 416.707 687.215 409.194 667.521 409.167V409.183Z" fill="#461CFF"/>
<path d="M756.849 599.421H578.194C577.748 599.401 577.325 599.222 577.01 598.919C576.694 598.617 576.508 598.212 576.486 597.784V587.146C576.508 586.718 576.694 586.314 577.01 586.011C577.325 585.708 577.748 585.529 578.194 585.509H756.849C757.296 585.529 757.719 585.708 758.034 586.011C758.349 586.314 758.536 586.718 758.557 587.146V597.784C758.557 598.218 758.378 598.635 758.057 598.941C757.736 599.248 757.303 599.421 756.849 599.421Z" fill="white"/>
<path d="M756.849 628.881H578.194C577.748 628.861 577.325 628.682 577.01 628.379C576.694 628.077 576.508 627.672 576.486 627.244V616.606C576.508 616.178 576.694 615.774 577.01 615.471C577.325 615.168 577.748 614.989 578.194 614.969H756.849C757.296 614.989 757.719 615.168 758.034 615.471C758.349 615.774 758.536 616.178 758.557 616.606V627.244C758.557 627.678 758.378 628.095 758.057 628.401C757.736 628.708 757.303 628.881 756.849 628.881Z" fill="white"/>
<path d="M713.735 673.857H621.334C619.937 673.854 618.598 673.321 617.611 672.376C616.623 671.429 616.068 670.146 616.066 668.808V654.356C616.066 653.017 616.621 651.732 617.609 650.785C618.596 649.839 619.936 649.307 621.334 649.307H713.735C715.132 649.307 716.471 649.839 717.459 650.785C718.448 651.732 719.003 653.017 719.003 654.356V668.808C719.01 669.473 718.88 670.132 718.618 670.749C718.355 671.365 717.968 671.925 717.477 672.395C716.987 672.866 716.403 673.237 715.76 673.488C715.117 673.739 714.428 673.864 713.735 673.857Z" fill="#C73C51"/>
<path d="M618.73 735.747C614.341 735.747 610.132 734.077 607.027 731.102C603.923 728.128 602.178 724.095 602.176 719.888C602.176 715.679 603.92 711.644 607.024 708.668C610.129 705.692 614.339 704.02 618.73 704.02C623.119 704.023 627.327 705.695 630.43 708.671C633.533 711.646 635.275 715.681 635.275 719.888C635.275 724.094 633.532 728.128 630.43 731.102C627.326 734.076 623.118 735.747 618.73 735.747Z" fill="white"/>
<path d="M616.203 729.47H620.232V719.806H623.041L623.348 716.533H620.232V714.691C620.232 713.93 620.394 713.627 621.163 713.627H623.348V710.313H620.557C617.56 710.313 616.203 711.582 616.203 714.004V716.582H614.111V719.855H616.203V729.47Z" fill="#C73C51"/>
<path d="M669.562 735.747C665.174 735.747 660.966 734.076 657.862 731.102C654.76 728.128 653.016 724.094 653.016 719.888C653.016 715.681 654.759 711.646 657.862 708.671C660.965 705.695 665.173 704.023 669.562 704.02C673.952 704.02 678.163 705.692 681.268 708.668C684.372 711.644 686.116 715.679 686.116 719.888C686.114 724.095 684.369 728.128 681.264 731.102C678.16 734.077 673.951 735.747 669.562 735.747Z" fill="white"/>
<path d="M669.562 713.194C671.833 713.194 672.123 713.194 672.977 713.243C673.517 713.251 674.051 713.348 674.556 713.529C674.925 713.662 675.26 713.868 675.538 714.135C675.817 714.402 676.032 714.722 676.17 715.076C676.36 715.56 676.46 716.073 676.469 716.59C676.469 717.449 676.52 717.711 676.52 719.863C676.52 722.015 676.52 722.318 676.469 723.137C676.46 723.654 676.36 724.166 676.17 724.651C676.029 725.002 675.812 725.321 675.534 725.587C675.256 725.853 674.924 726.061 674.556 726.197C674.052 726.379 673.517 726.473 672.977 726.475C672.123 726.516 671.807 726.524 669.562 726.524C667.317 726.524 667.001 726.524 666.147 726.475C665.607 726.473 665.073 726.379 664.567 726.197C664.197 726.065 663.862 725.855 663.586 725.583C663.308 725.319 663.093 725.001 662.954 724.651C662.764 724.166 662.666 723.654 662.664 723.137C662.664 722.269 662.612 722.015 662.612 719.863C662.612 717.711 662.612 717.408 662.664 716.59C662.666 716.073 662.764 715.56 662.954 715.076C663.091 714.72 663.309 714.398 663.594 714.135C663.868 713.865 664.2 713.655 664.567 713.521C665.075 713.348 665.608 713.254 666.147 713.243C667.001 713.202 667.317 713.194 669.562 713.194ZM669.562 711.729C667.248 711.729 667.001 711.729 666.053 711.778C665.347 711.787 664.648 711.914 663.987 712.155C663.43 712.362 662.927 712.684 662.51 713.096C662.073 713.501 661.736 713.996 661.528 714.544C661.276 715.177 661.141 715.847 661.127 716.524C661.084 717.392 661.076 717.67 661.076 719.888C661.076 722.105 661.076 722.343 661.127 723.251C661.145 723.927 661.277 724.596 661.52 725.231C661.738 725.777 662.076 726.271 662.51 726.68C662.934 727.097 663.451 727.419 664.021 727.621C664.682 727.862 665.381 727.992 666.087 728.006C666.992 728.006 667.282 728.055 669.596 728.055C671.91 728.055 672.157 728.055 673.105 728.006C673.812 727.992 674.511 727.862 675.171 727.621C675.742 727.419 676.258 727.097 676.682 726.68C677.113 726.272 677.447 725.781 677.664 725.24C677.907 724.605 678.04 723.935 678.057 723.259C678.099 722.384 678.108 722.114 678.108 719.896C678.108 717.678 678.108 717.4 678.057 716.533C678.045 715.856 677.912 715.186 677.664 714.552C677.448 714.008 677.113 713.514 676.682 713.104C676.255 712.691 675.739 712.37 675.171 712.163C674.51 711.925 673.811 711.798 673.105 711.786C672.2 711.786 671.91 711.737 669.596 711.737" fill="#C73C51"/>
<path d="M669.562 715.698C668.697 715.698 667.852 715.943 667.133 716.404C666.414 716.864 665.854 717.519 665.523 718.285C665.192 719.05 665.105 719.893 665.274 720.705C665.443 721.518 665.859 722.264 666.47 722.85C667.082 723.436 667.861 723.835 668.709 723.997C669.557 724.159 670.435 724.076 671.234 723.758C672.033 723.442 672.716 722.904 673.196 722.215C673.676 721.527 673.933 720.717 673.933 719.888C673.933 718.777 673.472 717.711 672.652 716.925C671.833 716.139 670.721 715.698 669.562 715.698ZM669.562 722.605C668.998 722.606 668.448 722.448 667.979 722.149C667.51 721.85 667.144 721.425 666.928 720.926C666.712 720.428 666.655 719.88 666.764 719.35C666.873 718.821 667.145 718.335 667.543 717.952C667.941 717.571 668.449 717.312 669 717.207C669.552 717.101 670.125 717.156 670.645 717.363C671.165 717.571 671.608 717.921 671.921 718.371C672.232 718.82 672.398 719.349 672.396 719.888C672.396 720.245 672.323 720.598 672.18 720.928C672.038 721.257 671.829 721.556 671.566 721.809C671.303 722.061 670.99 722.261 670.646 722.398C670.302 722.534 669.934 722.605 669.562 722.605Z" fill="#C73C51"/>
<path d="M675.129 715.534C675.129 715.728 675.068 715.918 674.956 716.08C674.843 716.241 674.683 716.367 674.496 716.442C674.309 716.515 674.103 716.535 673.904 716.497C673.705 716.46 673.523 716.366 673.379 716.228C673.236 716.092 673.138 715.916 673.099 715.726C673.06 715.535 673.079 715.338 673.157 715.159C673.235 714.979 673.366 714.826 673.535 714.718C673.704 714.61 673.902 714.552 674.104 714.552C674.239 714.551 674.372 714.576 674.498 714.625C674.622 714.673 674.736 714.746 674.831 714.837C674.926 714.929 675.001 715.038 675.052 715.157C675.104 715.276 675.129 715.405 675.129 715.534Z" fill="#C73C51"/>
<path d="M720.394 735.747C716.006 735.747 711.798 734.076 708.695 731.102C705.592 728.128 703.849 724.094 703.849 719.888C703.849 715.679 705.593 711.644 708.697 708.668C711.801 705.692 716.012 704.02 720.403 704.02C724.792 704.023 729 705.695 732.103 708.671C735.205 711.646 736.948 715.681 736.948 719.888C736.946 724.095 735.201 728.128 732.097 731.102C728.992 734.077 724.783 735.747 720.394 735.747Z" fill="white"/>
<path d="M710.525 725.862C712.305 726.953 714.364 727.555 716.476 727.6C718.589 727.646 720.674 727.133 722.504 726.12C724.334 725.106 725.837 723.63 726.85 721.853C727.863 720.075 728.347 718.065 728.249 716.042C729.045 715.493 729.729 714.811 730.272 714.029C729.533 714.346 728.747 714.553 727.941 714.642C728.791 714.162 729.426 713.398 729.726 712.498C728.934 712.948 728.068 713.267 727.165 713.439C726.554 712.815 725.746 712.402 724.865 712.263C723.984 712.124 723.08 712.268 722.293 712.672C721.507 713.075 720.88 713.717 720.512 714.496C720.144 715.276 720.055 716.15 720.258 716.983C718.645 716.9 717.067 716.493 715.629 715.789C714.19 715.083 712.923 714.096 711.908 712.891C711.391 713.745 711.234 714.757 711.467 715.719C711.7 716.681 712.307 717.522 713.163 718.071C712.52 718.052 711.891 717.887 711.327 717.588C711.315 718.493 711.634 719.375 712.228 720.078C712.821 720.782 713.654 721.265 714.58 721.443C713.982 721.596 713.354 721.619 712.745 721.508C713.004 722.281 713.51 722.957 714.189 723.44C714.869 723.925 715.689 724.193 716.535 724.209C715.696 724.849 714.734 725.326 713.703 725.61C712.671 725.893 711.591 725.979 710.525 725.862Z" fill="#C73C51"/>
<path d="M372.141 772.057C365.311 678.398 357.807 672.22 357.491 671.991L357.969 671.172C358.293 671.328 366.173 675.96 373.157 772.024L372.141 772.057Z" fill="#C73C51"/>
<path d="M379.193 772.057L378.186 771.991C382.668 703.57 377.793 666.254 377.742 665.886L378.741 665.763C378.792 666.131 383.684 703.529 379.193 772.057Z" fill="#C73C51"/>
<path d="M385.332 774.094C379.902 731.426 393.741 698.922 393.869 698.595L394.8 698.971C394.663 699.29 380.918 731.574 386.322 773.98L385.332 774.094Z" fill="#C73C51"/>
<path d="M391.018 779.307C388.754 764.075 388.878 748.604 391.385 733.407L392.375 733.587C389.889 748.676 389.768 764.036 392.016 779.16L391.018 779.307Z" fill="#C73C51"/>
<path d="M394.057 699.364L398.445 699.02C401.563 698.764 404.587 697.871 407.316 696.402C408.647 695.652 410.027 694.985 411.448 694.405C416.878 692.318 422.931 692.695 428.77 692.416C438.337 691.949 447.711 689.65 456.338 685.657C456.843 685.436 457.263 685.07 457.542 684.61C458.438 683.038 456.765 681.639 455.322 680.788C447.928 676.418 440.398 671.991 432.006 669.822C423.614 667.654 414.077 668.022 406.94 672.744C398.539 678.284 395.474 689.667 394.057 699.348" fill="#C73C51"/>
<g opacity="0.3">
<g opacity="0.3">
<path opacity="0.3" d="M457.61 684.127C457.352 684.037 457.104 683.925 456.867 683.791L454.784 682.752C452.983 681.844 450.387 680.501 447.1 678.987C443.276 677.19 439.294 675.719 435.199 674.593C430.194 673.217 424.952 672.811 419.78 673.398C414.601 673.95 409.71 675.964 405.728 679.184C402.616 681.947 400.124 685.288 398.402 689.004C397.208 691.51 396.145 694.072 395.218 696.68C394.894 697.556 394.637 698.267 394.441 698.799C394.36 699.05 394.257 699.294 394.134 699.528C394.165 699.267 394.228 699.012 394.321 698.767C394.501 698.218 394.723 697.506 395.005 696.606C395.851 693.963 396.861 691.37 398.027 688.84C399.716 685.029 402.217 681.598 405.369 678.767C409.419 675.453 414.412 673.378 419.704 672.809C424.975 672.21 430.32 672.641 435.413 674.077C439.536 675.231 443.538 676.752 447.365 678.619C450.635 680.174 453.205 681.573 454.98 682.547L457.012 683.685C457.255 683.804 457.484 683.947 457.695 684.11" fill="black"/>
</g>
</g>
<g opacity="0.3">
<g opacity="0.3">
<path opacity="0.3" d="M447.092 689.544C447.006 689.667 441.261 686.107 434.286 681.59C427.31 677.073 421.676 673.3 421.752 673.177C421.829 673.055 427.584 676.606 434.559 681.123C441.534 685.641 447.152 689.413 447.058 689.544" fill="black"/>
</g>
</g>
<g opacity="0.3">
<g opacity="0.3">
<path opacity="0.3" d="M440.97 672.883C439.623 673.326 438.212 673.569 436.787 673.603C435.37 673.791 433.931 673.775 432.518 673.554C433.907 673.307 435.315 673.168 436.727 673.136C438.142 672.947 439.569 672.861 440.996 672.883" fill="black"/>
</g>
</g>
<g opacity="0.3">
<g opacity="0.3">
<path opacity="0.3" d="M415.828 669.74C415.973 669.806 415.127 671.066 413.949 672.564C413.285 673.536 412.481 674.411 411.559 675.166C411.422 675.1 412.267 673.84 413.446 672.343C414.108 671.372 414.91 670.496 415.828 669.74Z" fill="black"/>
</g>
</g>
<g opacity="0.3">
<g opacity="0.3">
<path opacity="0.3" d="M420.976 692.785C420.007 692.393 419.079 691.911 418.209 691.344C416.553 690.379 414.308 688.971 411.917 687.302C409.527 685.632 407.409 684.028 405.89 682.907C405.034 682.324 404.237 681.667 403.508 680.943C404.433 681.413 405.313 681.961 406.137 682.58L412.259 686.843C414.649 688.48 416.843 689.961 418.44 691.009C419.343 691.528 420.2 692.119 421.001 692.776" fill="black"/>
</g>
</g>
<path d="M405.967 833.063H362.502L354.417 775.903H414.06L405.967 833.063Z" fill="#010517"/>
<path d="M419.106 784.618H349.363L348.356 772.024H420.122L419.106 784.618Z" fill="#010517"/>
<path opacity="0.2" d="M355.655 784.618H412.822L405.967 833.063L399.102 832.613L402.936 788.497L356.091 787.736L355.655 784.618Z" fill="black"/>
<g opacity="0.2">
<g opacity="0.2">
<path opacity="0.2" d="M404.182 772.114L402.15 784.618H419.106L420.122 772.024L404.182 772.114Z" fill="black"/>
</g>
</g>
<g opacity="0.2">
<g opacity="0.2">
<path opacity="0.2" d="M410.013 799.004H358.302V799.97H410.013V799.004Z" fill="white"/>
</g>
</g>
<g opacity="0.2">
<g opacity="0.2">
<path opacity="0.2" d="M410.013 802.883H358.302V803.849H410.013V802.883Z" fill="white"/>
</g>
</g>
<path d="M358.677 671.557C354.494 668.513 350.072 667.916 344.821 668.112C339.569 668.446 334.427 669.714 329.658 671.852C321.454 675.289 313.745 680.362 308.844 687.547C303.943 694.732 302.245 704.241 305.907 712.097C306.196 712.916 306.788 713.603 307.572 714.029C308.484 714.279 309.46 714.206 310.321 713.824C319.644 710.911 329.044 707.965 337.641 703.398C346.238 698.832 353.999 692.474 358.575 684.168C359.757 682.207 360.506 680.034 360.778 677.785C360.908 676.66 360.785 675.523 360.417 674.448C360.049 673.374 359.444 672.388 358.643 671.557" fill="#C73C51"/>
<g opacity="0.3">
<g opacity="0.3">
<path opacity="0.3" d="M358.763 670.608C358.55 670.722 358.323 670.81 358.088 670.87L356.133 671.516L354.716 671.966C354.204 672.146 353.657 672.367 353.06 672.588C351.882 673.046 350.498 673.505 349.073 674.176L346.785 675.174C345.991 675.526 345.197 675.992 344.36 676.361C342.653 677.179 340.945 678.177 339.135 679.208C331.314 683.857 324.357 689.723 318.551 696.565C317.253 698.161 315.99 699.659 314.948 701.164C314.419 701.909 313.864 702.613 313.403 703.316L312.08 705.403C311.226 706.688 310.551 707.932 309.928 708.996C309.629 709.528 309.331 710.027 309.075 710.485C308.818 710.943 308.622 711.385 308.426 711.778L307.504 713.554C307.407 713.766 307.289 713.969 307.154 714.159C307.213 713.934 307.296 713.715 307.401 713.505C307.615 713.038 307.879 712.433 308.255 711.68L308.853 710.371C309.092 709.896 309.373 709.397 309.664 708.848C310.27 707.768 310.893 706.5 311.747 705.199L313.053 703.12C313.505 702.4 314.052 701.696 314.573 700.935C315.606 699.413 316.869 697.891 318.167 696.271C323.961 689.339 330.969 683.427 338.879 678.799C340.723 677.776 342.456 676.77 344.164 675.984C345.017 675.583 345.811 675.166 346.614 674.814L348.928 673.84C350.396 673.194 351.779 672.76 352.974 672.326C353.581 672.122 354.135 671.909 354.682 671.753L356.116 671.344L358.105 670.796C358.336 670.725 358.573 670.672 358.814 670.64" fill="black"/>
</g>
</g>
<g opacity="0.3">
<g opacity="0.3">
<path opacity="0.3" d="M326.073 687.572C326.116 687.719 321.565 689.127 315.896 690.714C310.227 692.302 305.6 693.472 305.557 693.325C305.514 693.177 310.065 691.77 315.734 690.182C321.403 688.595 326.03 687.425 326.073 687.572Z" fill="black"/>
</g>
</g>
<g opacity="0.3">
<g opacity="0.3">
<path opacity="0.3" d="M325.654 709.102C325.478 708.097 325.403 707.077 325.432 706.058C325.381 704.184 325.373 701.582 325.432 698.693C325.492 695.804 325.671 693.235 325.834 691.328C325.865 690.308 325.999 689.294 326.235 688.3C326.33 689.312 326.33 690.332 326.235 691.344C326.175 693.407 326.09 695.911 326.004 698.709C325.919 701.508 325.868 703.979 325.808 706.033C325.841 707.051 325.777 708.07 325.62 709.078" fill="black"/>
</g>
</g>
<g opacity="0.3">
<g opacity="0.3">
<path opacity="0.3" d="M344.915 699.675C344.761 699.675 344.249 694.405 343.779 687.883C343.31 681.361 343.054 676.074 343.216 676.058C343.378 676.042 343.89 681.328 344.36 687.85C344.83 694.372 345.052 699.675 344.915 699.675Z" fill="black"/>
</g>
</g>
<g opacity="0.3">
<g opacity="0.3">
<path opacity="0.3" d="M320.95 675.583C322.031 675.45 323.123 675.417 324.212 675.485C326.218 675.485 329.001 675.559 332.066 675.649C335.131 675.739 337.906 675.87 339.912 675.984C341.001 675.987 342.087 676.089 343.156 676.287C342.076 676.409 340.988 676.439 339.903 676.377C337.889 676.377 335.114 676.312 332.04 676.213C328.967 676.115 326.201 675.992 324.194 675.878C323.106 675.87 322.021 675.771 320.95 675.583Z" fill="black"/>
</g>
</g>
<path d="M350.268 651.18L344.915 660.542C344.796 660.763 344.625 661.009 344.369 661.025C344.112 661.041 343.873 660.788 343.72 660.567L329.454 639.585L332.741 637.801L350.268 651.18Z" fill="#C73C51"/>
<g opacity="0.2">
<g opacity="0.2">
<path opacity="0.2" d="M350.268 651.18L344.915 660.542C344.796 660.763 344.625 661.009 344.369 661.025C344.112 661.041 343.873 660.788 343.72 660.567L329.454 639.585L332.741 637.801L350.268 651.18Z" fill="black"/>
</g>
</g>
<path d="M379.193 668.055L330.529 640.542C330.034 640.256 329.488 639.928 329.343 639.397C329.146 638.701 329.684 638.038 330.196 637.523C333.539 634.19 337.591 631.588 342.077 629.893C346.564 628.199 351.379 627.451 356.193 627.703C365.781 628.365 374.976 633.668 379.697 641.712C384.418 649.757 384.546 660.387 379.159 668.022" fill="#C73C51"/>
<g opacity="0.3">
<g opacity="0.3">
<path opacity="0.3" d="M337.564 631.753C337.772 631.708 337.983 631.683 338.196 631.68C338.614 631.68 339.238 631.59 340.04 631.598C342.3 631.564 344.557 631.735 346.785 632.105C354.204 633.302 361.112 636.51 366.691 641.349C372.27 646.188 376.288 652.456 378.271 659.413C378.879 661.503 379.282 663.642 379.475 665.804C379.525 666.255 379.551 666.708 379.552 667.163C379.511 667.524 379.382 667.872 379.176 668.177C379.327 667.4 379.354 666.605 379.253 665.821C378.97 663.691 378.51 661.587 377.878 659.528C375.835 652.685 371.833 646.528 366.325 641.755C360.817 636.982 354.024 633.784 346.716 632.523C344.511 632.121 342.275 631.891 340.032 631.835C338.444 631.835 337.564 631.835 337.564 631.778" fill="black"/>
</g>
</g>
<g opacity="0.3">
<g opacity="0.3">
<path opacity="0.3" d="M372.611 649.061C371.837 649.508 371.012 649.868 370.152 650.133C368.598 650.714 366.438 651.467 364.013 652.203C361.589 652.94 359.369 653.529 357.755 653.906C356.893 654.168 356.002 654.33 355.1 654.388C355.923 654.034 356.781 653.76 357.661 653.57L363.851 651.712L370.015 649.757C370.843 649.445 371.701 649.212 372.576 649.061" fill="black"/>
</g>
</g>
<g opacity="0.3">
<g opacity="0.3">
<path opacity="0.3" d="M364.952 629.339C365.106 629.339 365.455 631.647 365.524 634.544C365.592 637.441 365.379 639.773 365.225 639.765C365.072 639.757 365.021 637.424 364.944 634.552C364.867 631.68 364.79 629.356 364.944 629.339" fill="black"/>
</g>
</g>
<g opacity="0.3">
<g opacity="0.3">
<path opacity="0.3" d="M330.128 640.018C331.267 639.522 332.45 639.122 333.663 638.824C335.874 638.169 338.947 637.343 342.379 636.549C345.811 635.755 348.945 635.149 351.224 634.773C352.445 634.51 353.687 634.348 354.938 634.29C353.747 634.657 352.532 634.946 351.301 635.158C349.047 635.64 345.94 636.303 342.516 637.097C339.092 637.891 336.01 638.652 333.774 639.208C332.579 639.559 331.361 639.833 330.128 640.027" fill="black"/>
</g>
</g>
<path d="M399.555 720.133C395.363 719.078 390.377 722.981 389.515 727.048C388.653 731.115 390.241 735.281 392.076 739.021C396.208 747.318 401.894 755.019 409.399 760.739C416.903 766.459 426.286 770.134 435.865 770.084C434.098 762.204 436.334 753.971 435.353 745.96C434.472 738.918 431.128 732.371 425.868 727.383C420.608 722.396 413.74 719.263 406.385 718.497C403.713 718.218 400.622 717.817 399.555 720.182" fill="#C73C51"/>
<g opacity="0.3">
<g opacity="0.3">
<path opacity="0.3" d="M435.856 770.101C435.647 770.035 435.447 769.948 435.259 769.839C434.708 769.547 434.186 769.211 433.696 768.832C431.942 767.366 430.533 765.558 429.564 763.529C428.89 762.286 428.147 760.935 427.421 759.438C426.696 757.94 425.953 756.336 425.168 754.659C424.352 752.907 423.426 751.204 422.393 749.561C421.262 747.812 419.989 746.151 418.585 744.593C415.717 741.361 412.609 738.57 409.979 735.903C407.566 733.573 405.369 731.046 403.414 728.349C402.1 726.525 401.023 724.555 400.204 722.482C399.931 721.737 399.743 721.164 399.64 720.755C399.588 720.551 399.558 720.343 399.555 720.133C399.606 720.133 399.845 720.952 400.46 722.392C401.35 724.413 402.47 726.334 403.798 728.12C405.783 730.763 407.994 733.242 410.406 735.534C413.078 738.178 416.178 740.96 419.072 744.225C420.494 745.805 421.785 747.491 422.931 749.266C423.968 750.931 424.893 752.659 425.697 754.438L427.9 759.233C428.6 760.723 429.325 762.081 429.974 763.325C430.887 765.331 432.218 767.139 433.884 768.636C435.105 769.651 435.933 770.027 435.899 770.076" fill="black"/>
</g>
</g>
<g opacity="0.3">
<g opacity="0.3">
<path opacity="0.3" d="M414.205 763.554C414.223 762.642 414.352 761.736 414.589 760.854C414.914 759.217 415.443 756.926 416.177 754.454C416.912 751.983 417.68 749.781 418.303 748.202C418.593 747.347 418.976 746.524 419.447 745.747C419.28 746.642 419.028 747.522 418.696 748.374C418.175 750.011 417.467 752.187 416.741 754.651C416.015 757.114 415.418 759.348 414.991 760.976C414.813 761.871 414.551 762.747 414.205 763.595" fill="black"/>
</g>
</g>
<g opacity="0.3">
<g opacity="0.3">
<path opacity="0.3" d="M435.062 744.209C434.063 744.074 433.077 743.854 432.117 743.554C430.307 743.104 427.848 742.49 425.048 741.917C422.248 741.345 419.746 740.854 417.911 740.518C416.908 740.396 415.92 740.188 414.957 739.896C415.97 739.87 416.983 739.95 417.979 740.133C419.832 740.363 422.384 740.772 425.176 741.377C427.968 741.983 430.452 742.662 432.228 743.21C433.21 743.451 434.161 743.797 435.062 744.241" fill="black"/>
</g>
</g>
<g opacity="0.3">
<g opacity="0.3">
<path opacity="0.3" d="M398.701 749.831C398.741 748.774 398.893 747.724 399.154 746.697C399.521 744.782 400.101 742.147 400.861 739.274C401.621 736.402 402.475 733.816 403.132 731.975C403.431 730.96 403.834 729.975 404.336 729.037C404.151 730.074 403.879 731.094 403.525 732.089C402.97 733.963 402.21 736.541 401.425 739.413C400.639 742.286 399.999 744.888 399.529 746.778C399.328 747.816 399.043 748.836 398.676 749.831" fill="black"/>
</g>
</g>
<g opacity="0.3">
<g opacity="0.3">
<path opacity="0.3" d="M425.458 727.343C425.458 727.498 420.216 727.089 413.779 726.435C407.341 725.78 402.15 725.133 402.168 724.978C402.185 724.822 407.41 725.232 413.847 725.886C420.284 726.541 425.475 727.187 425.458 727.343Z" fill="black"/>
</g>
</g>
<path d="M378.869 680.452C378.51 676.802 374.66 674.045 370.826 674.004C366.993 673.963 363.424 676.164 361.085 679.069C358.746 681.974 357.448 685.518 356.398 689.053C353.837 697.662 352.402 706.713 353.512 715.608C354.622 724.503 358.379 733.259 365.038 739.544C366.122 740.567 367.522 741.59 369.008 741.287C369.807 741.05 370.529 740.622 371.108 740.043C377.629 734.322 382.797 727.329 386.266 719.535C389.735 711.741 391.426 703.326 391.222 694.855C391.12 691.475 390.659 687.948 388.704 685.133C386.749 682.318 382.19 679.323 378.869 680.452Z" fill="#C73C51"/>
<g opacity="0.3">
<g opacity="0.3">
<path opacity="0.3" d="M367.112 740.772C367.066 740.567 367.043 740.359 367.044 740.15C367.044 739.675 366.993 739.086 366.959 738.349C366.882 736.795 366.873 734.536 366.959 731.746C367.044 728.955 367.206 725.641 367.556 721.926C367.906 718.21 368.487 714.233 369.264 710.043C370.041 705.853 371.031 701.86 372.03 698.325C373.029 694.79 374.088 691.582 375.061 688.947C376.034 686.312 376.879 684.2 377.52 682.76L378.262 681.123C378.336 680.925 378.433 680.735 378.553 680.559C378.523 680.767 378.463 680.971 378.373 681.164C378.203 681.606 377.989 682.163 377.733 682.858C377.153 684.315 376.367 686.443 375.454 689.086C374.54 691.729 373.541 694.912 372.551 698.464C371.561 702.015 370.638 705.976 369.836 710.15C369.033 714.323 368.487 718.333 368.086 721.991C367.685 725.649 367.471 728.955 367.36 731.737C367.249 734.52 367.198 736.77 367.206 738.284C367.206 739.015 367.206 739.612 367.206 740.076C367.223 740.287 367.205 740.5 367.155 740.706" fill="black"/>
</g>
</g>
<g opacity="0.3">
<g opacity="0.3">
<path opacity="0.3" d="M369.674 710.24C369.107 710.986 368.457 711.673 367.736 712.286C366.472 713.489 364.688 715.101 362.613 716.819C360.539 718.538 358.669 720.019 357.26 721.058C356.535 721.664 355.742 722.191 354.895 722.629C355.536 721.94 356.242 721.31 357.004 720.747L362.229 716.394L367.42 711.999C368.099 711.345 368.842 710.755 369.64 710.24" fill="black"/>
</g>
</g>
<g opacity="0.3">
<g opacity="0.3">
<path opacity="0.3" d="M385.084 722.13C384.325 721.267 383.634 720.351 383.018 719.389L378.211 712.662L373.302 706.009C372.578 705.117 371.922 704.177 371.339 703.194C372.184 703.985 372.952 704.848 373.635 705.772C374.984 707.408 376.786 709.724 378.689 712.318C380.593 714.912 382.224 717.367 383.368 719.151C384.029 720.085 384.6 721.074 385.075 722.105" fill="black"/>
</g>
</g>
<g opacity="0.3">
<g opacity="0.3">
<path opacity="0.3" d="M377.025 684.74C377.11 684.871 371.996 688.177 365.601 692.105C359.207 696.033 353.948 699.135 353.862 699.004C353.777 698.873 358.891 695.575 365.286 691.639C371.68 687.703 376.931 684.609 377.025 684.732" fill="black"/>
</g>
</g>
<g opacity="0.3">
<g opacity="0.3">
<path opacity="0.3" d="M391.444 699.675C391.333 699.781 387.867 696.713 383.709 692.817C379.552 688.922 376.265 685.682 376.376 685.567C376.487 685.452 379.953 688.529 384.111 692.425C388.268 696.32 391.555 699.56 391.444 699.675Z" fill="black"/>
</g>
</g>
<path d="M401.843 420.001H313.13V537.645H401.843V420.001Z" fill="white"/>
<path d="M390.002 430.885H324.98V526.753H390.002V430.885Z" fill="#461CFF"/>
<path d="M404.507 419.944H401.928V537.588H404.507V419.944Z" fill="#461CFF"/>
<path opacity="0.6" d="M390.002 430.885H324.98V526.753H390.002V430.885Z" fill="white"/>
<path opacity="0.6" d="M404.507 419.944H401.928V537.588H404.507V419.944Z" fill="white"/>
<path d="M372.756 464.822H342.302V511.155H372.756V464.822Z" fill="#461CFF"/>
<path d="M357.533 459.019C361.515 459.019 365.335 457.509 368.158 454.818C370.982 452.127 372.579 448.474 372.602 444.658H342.542C342.542 446.545 342.929 448.412 343.683 450.155C344.436 451.898 345.541 453.482 346.933 454.816C348.325 456.15 349.978 457.208 351.797 457.929C353.616 458.65 355.565 459.02 357.533 459.019Z" fill="white"/>
<path d="M475.974 288.053H392.23V404.396H475.974V288.053Z" fill="#C73C51"/>
<path opacity="0.6" d="M475.974 288.053H392.23V404.396H475.974V288.053Z" fill="white"/>
<path d="M471.381 288.053H387.637V404.396H471.381V288.053Z" fill="white"/>
<path d="M461.196 300.304H398.044V391.515H461.196V300.304Z" fill="#C73C51"/>
<path opacity="0.6" d="M461.196 300.304H398.044V391.515H461.196V300.304Z" fill="white"/>
<path d="M440.159 317.235H419.089V374.592H440.159V317.235Z" fill="#C73C51"/>
<path d="M440.159 317.235H419.089V374.592H440.159V317.235Z" fill="#C73C51"/>
<path d="M419.089 351.671C417.654 351.671 416.25 351.262 415.057 350.498C413.864 349.734 412.933 348.648 412.384 347.377C411.835 346.106 411.691 344.707 411.971 343.358C412.251 342.009 412.943 340.769 413.957 339.797C414.972 338.824 416.265 338.161 417.673 337.892C419.08 337.624 420.54 337.762 421.866 338.288C423.192 338.815 424.325 339.707 425.122 340.851C425.92 341.994 426.346 343.339 426.346 344.715C426.343 346.559 425.578 348.327 424.217 349.631C422.857 350.935 421.012 351.668 419.089 351.671Z" fill="white"/>
<path d="M1178.2 649.568H1002.63V792.351H1156.69L1178.2 649.568Z" fill="#C73C51"/>
<path opacity="0.51" d="M1178.2 649.568H1002.63V792.351H1156.69L1178.2 649.568Z" fill="white"/>
<path d="M1009.52 781.484H1158.33L1158.48 780.485H1010.63V670.641H1175.03L1175.2 669.56L1009.52 669.446V781.484Z" fill="#C73C51"/>
<path d="M1178.54 647.302H997.129C996.505 647.302 995.899 647.54 995.455 647.965C995.011 648.391 994.764 648.967 994.764 649.568C994.764 650.17 995.011 650.746 995.455 651.171C995.899 651.596 996.505 651.835 997.129 651.835H1177.86L1178.54 647.302Z" fill="#C73C51"/>
<path d="M1167.08 724.724H1009.55V725.788H1167.08V724.724Z" fill="#C73C51"/>
<path d="M1104.97 689.855C1105.7 689.855 1106.42 689.648 1107.02 689.259C1107.63 688.87 1108.1 688.319 1108.38 687.672C1108.66 687.027 1108.73 686.316 1108.59 685.63C1108.45 684.944 1108.1 684.314 1107.58 683.82C1107.07 683.325 1106.41 682.989 1105.69 682.852C1104.97 682.716 1104.24 682.786 1103.57 683.054C1102.89 683.321 1102.31 683.774 1101.91 684.356C1101.5 684.937 1101.29 685.621 1101.29 686.32C1101.29 687.258 1101.67 688.157 1102.36 688.82C1103.05 689.483 1103.99 689.855 1104.97 689.855Z" fill="#C73C51"/>
<g opacity="0.15">
<g opacity="0.15">
<path opacity="0.15" d="M1106.37 686.312C1106.37 685.575 1106.12 684.858 1105.67 684.261C1105.22 683.663 1104.58 683.216 1103.86 682.981C1104.23 682.844 1104.64 682.775 1105.04 682.776C1106.02 682.776 1106.96 683.149 1107.65 683.812C1108.35 684.474 1108.73 685.374 1108.73 686.312C1108.73 687.249 1108.35 688.149 1107.65 688.812C1106.96 689.475 1106.02 689.847 1105.04 689.847C1104.64 689.851 1104.24 689.785 1103.86 689.65C1104.58 689.403 1105.2 688.952 1105.66 688.356C1106.1 687.759 1106.35 687.047 1106.37 686.312Z" fill="black"/>
</g>
</g>
<path d="M1104.97 744.937C1105.7 744.937 1106.42 744.73 1107.02 744.341C1107.63 743.953 1108.1 743.401 1108.38 742.755C1108.66 742.109 1108.73 741.398 1108.59 740.712C1108.45 740.026 1108.1 739.396 1107.58 738.902C1107.07 738.407 1106.41 738.071 1105.69 737.934C1104.97 737.798 1104.24 737.868 1103.57 738.136C1102.89 738.403 1102.31 738.857 1101.91 739.438C1101.5 740.019 1101.29 740.703 1101.29 741.402C1101.29 742.339 1101.68 743.236 1102.37 743.899C1103.06 744.561 1103.99 744.935 1104.97 744.937Z" fill="#C73C51"/>
<g opacity="0.15">
<g opacity="0.15">
<path opacity="0.15" d="M1106.37 741.41C1106.37 740.672 1106.12 739.953 1105.67 739.354C1105.22 738.755 1104.58 738.307 1103.86 738.071C1104.24 737.937 1104.64 737.871 1105.04 737.875C1105.53 737.875 1106.01 737.966 1106.45 738.144C1106.9 738.322 1107.31 738.582 1107.65 738.91C1108 739.238 1108.26 739.628 1108.45 740.057C1108.64 740.486 1108.73 740.946 1108.73 741.41C1108.73 741.874 1108.64 742.334 1108.45 742.763C1108.26 743.192 1108 743.582 1107.65 743.91C1107.31 744.238 1106.9 744.498 1106.45 744.676C1106.01 744.854 1105.53 744.945 1105.04 744.945C1104.64 744.951 1104.23 744.881 1103.86 744.741C1104.59 744.511 1105.22 744.065 1105.67 743.466C1106.13 742.868 1106.37 742.148 1106.37 741.41Z" fill="black"/>
</g>
</g>
<path d="M1177.86 651.835H1002.63V654.037L1177.22 656.14L1177.86 651.835Z" fill="#C73C51"/>
<path d="M1007.93 792.417H1019.63L1008.83 833.17C1008.67 833.62 1008.36 834.004 1007.95 834.283C1007.55 834.553 1007.07 834.7 1006.57 834.7C1006.21 834.7 1005.85 834.618 1005.53 834.471C1005.21 834.324 1004.92 834.103 1004.7 833.833C1004.47 833.571 1004.31 833.26 1004.22 832.924C1004.14 832.589 1004.14 832.237 1004.21 831.901L1007.93 792.417Z" fill="#C73C51"/>
<path opacity="0.51" d="M1007.93 792.417H1019.63L1008.83 833.17C1008.67 833.62 1008.36 834.004 1007.95 834.283C1007.55 834.553 1007.07 834.7 1006.57 834.7C1006.21 834.7 1005.85 834.618 1005.53 834.471C1005.21 834.324 1004.92 834.103 1004.7 833.833C1004.47 833.571 1004.31 833.26 1004.22 832.924C1004.14 832.589 1004.14 832.237 1004.21 831.901L1007.93 792.417Z" fill="white"/>
<path d="M1014.26 796.754L1007.68 795.445L1007.96 792.417H1019.66L1009.23 831.754C1008.59 833.98 1007.98 834.7 1006.57 834.7L1014.26 796.754Z" fill="#C73C51"/>
<path d="M1053.13 792.417L1049.38 831.901C1049.31 832.237 1049.31 832.589 1049.4 832.924C1049.48 833.26 1049.64 833.571 1049.87 833.833C1050.1 834.103 1050.39 834.324 1050.71 834.471C1051.03 834.618 1051.38 834.7 1051.74 834.7C1052.25 834.708 1052.73 834.561 1053.15 834.291C1053.56 834.013 1053.87 833.62 1054.04 833.17L1064.82 792.417H1053.13Z" fill="#C73C51"/>
<path opacity="0.51" d="M1178.54 647.302H997.129C996.505 647.302 995.899 647.54 995.455 647.965C995.011 648.391 994.764 648.967 994.764 649.568C994.764 650.17 995.011 650.746 995.455 651.171C995.899 651.596 996.505 651.835 997.129 651.835H1177.86L1178.54 647.302Z" fill="white"/>
<path opacity="0.51" d="M1053.13 792.417L1049.38 831.901C1049.31 832.237 1049.31 832.589 1049.4 832.924C1049.48 833.26 1049.64 833.571 1049.87 833.833C1050.1 834.103 1050.39 834.324 1050.71 834.471C1051.03 834.618 1051.38 834.7 1051.74 834.7C1052.25 834.708 1052.73 834.561 1053.15 834.291C1053.56 834.013 1053.87 833.62 1054.04 833.17L1064.82 792.417H1053.13Z" fill="white"/>
<path d="M1055.16 813.423L1051.19 812.49L1053.07 792.417H1064.82L1054.04 833.17C1053.87 833.62 1053.56 834.013 1053.15 834.291C1052.73 834.561 1052.25 834.708 1051.74 834.7H1051.61L1055.16 813.423Z" fill="#C73C51"/>
<path d="M1122.63 632.891H1066.62V646.925H1122.63C1124.53 646.863 1126.33 646.096 1127.65 644.788C1128.96 643.478 1129.71 641.729 1129.71 639.908C1129.71 638.087 1128.96 636.338 1127.65 635.028C1126.33 633.72 1124.53 632.953 1122.63 632.891Z" fill="#010517"/>
<path opacity="0.2" d="M1122.63 632.891H1066.62V646.925H1122.63C1124.53 646.863 1126.33 646.096 1127.65 644.788C1128.96 643.478 1129.71 641.729 1129.71 639.908C1129.71 638.087 1128.96 636.338 1127.65 635.028C1126.33 633.72 1124.53 632.953 1122.63 632.891Z" fill="white"/>
<path d="M1071.29 646.925H1042.97V644.92H1051.74V634.969H1042.97V632.891H1071.29C1073.19 632.953 1074.99 633.72 1076.31 635.028C1077.63 636.338 1078.37 638.087 1078.37 639.908C1078.37 641.729 1077.63 643.478 1076.31 644.788C1074.99 646.096 1073.19 646.863 1071.29 646.925Z" fill="#010517"/>
<path d="M1045.06 644.847H1071.21C1072.57 644.847 1073.89 644.326 1074.85 643.4C1075.82 642.474 1076.37 641.218 1076.37 639.908C1076.37 638.598 1075.82 637.342 1074.85 636.416C1073.89 635.49 1072.57 634.969 1071.21 634.969H1045.06V644.847Z" fill="white"/>
<path d="M1131 622.089H1084.26V632.891H1131.01C1131.27 632.892 1131.52 632.845 1131.76 632.752C1131.99 632.66 1132.2 632.523 1132.38 632.352C1132.56 632.18 1132.7 631.975 1132.8 631.75C1132.89 631.526 1132.94 631.284 1132.94 631.041V623.946C1132.94 623.455 1132.74 622.985 1132.38 622.637C1132.2 622.464 1131.99 622.325 1131.76 622.231C1131.52 622.137 1131.27 622.089 1131.01 622.089" fill="#010517"/>
<path opacity="0.2" d="M1104.45 625.714H1120.54C1120.75 625.726 1120.96 625.818 1121.11 625.97C1121.26 626.122 1121.34 626.324 1121.34 626.532V628.914C1121.34 629.118 1121.26 629.313 1121.1 629.458C1120.96 629.602 1120.75 629.683 1120.54 629.683H1104.45C1104.22 629.683 1104.02 629.604 1103.86 629.461C1103.7 629.318 1103.6 629.122 1103.59 628.914V626.532C1103.59 626.316 1103.68 626.107 1103.84 625.954C1104 625.8 1104.21 625.714 1104.45 625.714Z" fill="black"/>
<path d="M1066.15 632.891H1091.57C1091.83 632.892 1092.07 632.845 1092.31 632.752C1092.54 632.66 1092.76 632.523 1092.94 632.352C1093.12 632.18 1093.26 631.975 1093.35 631.75C1093.45 631.526 1093.5 631.284 1093.5 631.041V623.946C1093.5 623.455 1093.3 622.985 1092.94 622.637C1092.76 622.464 1092.54 622.325 1092.31 622.231C1092.07 622.137 1091.83 622.089 1091.57 622.089H1066.15V632.891Z" fill="#010517"/>
<path opacity="0.2" d="M1066.15 632.891H1091.57C1091.83 632.892 1092.07 632.845 1092.31 632.752C1092.54 632.66 1092.76 632.523 1092.94 632.352C1093.12 632.18 1093.26 631.975 1093.35 631.75C1093.45 631.526 1093.5 631.284 1093.5 631.041V623.946C1093.5 623.455 1093.3 622.985 1092.94 622.637C1092.76 622.464 1092.54 622.325 1092.31 622.231C1092.07 622.137 1091.83 622.089 1091.57 622.089H1066.15V632.891Z" fill="black"/>
<path d="M1066.15 631.271H1090.84C1091.1 631.269 1091.35 631.172 1091.53 631C1091.71 630.826 1091.81 630.591 1091.81 630.346V624.56C1091.81 624.315 1091.71 624.08 1091.53 623.906C1091.35 623.734 1091.1 623.637 1090.84 623.635H1066.15V631.271Z" fill="white"/>
<path d="M1051.74 622.089H1107.01V611.295H1051.74C1051.39 611.293 1051.05 611.357 1050.73 611.484C1050.4 611.612 1050.1 611.799 1049.86 612.036C1049.62 612.272 1049.42 612.554 1049.28 612.864C1049.16 613.173 1049.09 613.505 1049.09 613.84V619.626C1049.1 619.954 1049.16 620.279 1049.3 620.579C1049.44 620.88 1049.64 621.151 1049.89 621.377C1050.39 621.838 1051.05 622.094 1051.74 622.089Z" fill="#010517"/>
<path opacity="0.3" d="M1051.74 622.089H1107.01V611.295H1051.74C1051.39 611.293 1051.05 611.357 1050.73 611.484C1050.4 611.612 1050.1 611.799 1049.86 612.036C1049.62 612.272 1049.42 612.554 1049.28 612.864C1049.16 613.173 1049.09 613.505 1049.09 613.84V619.626C1049.1 619.954 1049.16 620.279 1049.3 620.579C1049.44 620.88 1049.64 621.151 1049.89 621.377C1050.39 621.838 1051.05 622.094 1051.74 622.089Z" fill="white"/>
<path d="M1125.93 612.932H1100.48C1100.23 612.932 1099.98 613.029 1099.8 613.202C1099.71 613.287 1099.64 613.388 1099.59 613.501C1099.54 613.613 1099.52 613.734 1099.52 613.856V619.642C1099.52 619.764 1099.54 619.885 1099.59 619.997C1099.64 620.11 1099.71 620.212 1099.8 620.297C1099.98 620.469 1100.23 620.566 1100.48 620.567H1125.91L1125.93 612.932Z" fill="white"/>
<path d="M1099.78 611.295H1127.8V612.932H1100.48C1100.36 612.908 1100.24 612.908 1100.12 612.932C1100.01 612.97 1099.89 613.032 1099.81 613.112C1099.71 613.186 1099.63 613.285 1099.59 613.398C1099.54 613.508 1099.52 613.624 1099.52 613.742V619.601C1099.52 619.719 1099.54 619.835 1099.59 619.945C1099.64 620.054 1099.72 620.153 1099.81 620.231C1099.89 620.31 1100.01 620.371 1100.12 620.411C1100.24 620.436 1100.36 620.436 1100.48 620.411H1127.8V622.048H1099.8C1099.54 622.05 1099.3 622.003 1099.06 621.91C1098.83 621.817 1098.61 621.68 1098.43 621.508C1098.08 621.16 1097.87 620.689 1097.87 620.198V613.104C1097.87 612.861 1097.92 612.619 1098.02 612.395C1098.11 612.17 1098.26 611.965 1098.43 611.793C1098.61 611.622 1098.83 611.485 1099.06 611.392C1099.3 611.3 1099.54 611.253 1099.8 611.254" fill="#010517"/>
<path opacity="0.2" d="M1099.78 611.295H1127.8V612.932H1100.48C1100.36 612.908 1100.24 612.908 1100.12 612.932C1100.01 612.97 1099.89 613.032 1099.81 613.112C1099.71 613.186 1099.63 613.285 1099.59 613.398C1099.54 613.508 1099.52 613.624 1099.52 613.742V619.601C1099.52 619.719 1099.54 619.835 1099.59 619.945C1099.64 620.054 1099.72 620.153 1099.81 620.231C1099.89 620.31 1100.01 620.371 1100.12 620.411C1100.24 620.436 1100.36 620.436 1100.48 620.411H1127.8V622.048H1099.8C1099.54 622.05 1099.3 622.003 1099.06 621.91C1098.83 621.817 1098.61 621.68 1098.43 621.508C1098.08 621.16 1097.87 620.689 1097.87 620.198V613.104C1097.87 612.861 1097.92 612.619 1098.02 612.395C1098.11 612.17 1098.26 611.965 1098.43 611.793C1098.61 611.622 1098.83 611.485 1099.06 611.392C1099.3 611.3 1099.54 611.253 1099.8 611.254" fill="black"/>
</svg>
